<?xml version="1.0" encoding="UTF-8" standalone="no"?><svg xmlns="http://www.w3.org/2000/svg" xmlns:xlink="http://www.w3.org/1999/xlink" contentStyleType="text/css" height="681px" preserveAspectRatio="none" style="width:875px;height:681px;background:#FFFFFF;" version="1.1" viewBox="0 0 875 681" width="875px" zoomAndPan="magnify"><defs/><g><!--MD5=[4580b62c293d3e8125622e25a17d625f]
cluster Web Browser--><g id="cluster_Web Browser"><polygon fill="none" points="177.6822,169.1498,187.6822,159.1498,370.6822,159.1498,370.6822,598.1498,360.6822,608.1498,177.6822,608.1498,177.6822,169.1498" style="stroke:#181818;stroke-width:1.0;"/><line style="stroke:#181818;stroke-width:1.0;" x1="360.6822" x2="370.6822" y1="169.1498" y2="159.1498"/><line style="stroke:#181818;stroke-width:1.0;" x1="177.6822" x2="360.6822" y1="169.1498" y2="169.1498"/><line style="stroke:#181818;stroke-width:1.0;" x1="360.6822" x2="360.6822" y1="169.1498" y2="608.1498"/><text fill="#000000" font-family="sans-serif" font-size="14" font-weight="bold" lengthAdjust="spacing" textLength="93" x="223.6822" y="185.685">Web Browser</text></g><!--MD5=[8b7aa8b79f2e21fefe8ba3e6e1eb51b0]
cluster cwl--><g id="cluster_cwl"><rect fill="none" height="119" rx="2.5" ry="2.5" style="stroke:#181818;stroke-width:1.0;" width="129" x="209.6822" y="348.1498"/><text fill="#000000" font-family="sans-serif" font-size="14" font-weight="bold" lengthAdjust="spacing" textLength="96" x="226.1822" y="363.685">Collaborative</text><text fill="#000000" font-family="sans-serif" font-size="14" font-weight="bold" lengthAdjust="spacing" textLength="85" x="231.6822" y="380.1733">Web Library</text></g><!--MD5=[809c8a75e25a5f1203e71bceecf343a3]
cluster CDN--><g id="cluster_CDN"><path d="M22.9957,26.854 C29.9266,17.9975 35.8338,17.0624 42.3215,27.3025 C47.5904,18.0965 56.6842,18.0159 62.5757,26.5934 C67.9154,15.7056 74.3516,16.6911 81.812,24.3996 C87.0117,15.5218 95.0158,14.2028 101.7932,22.5719 C108.2934,12.1502 114.7967,12.3793 121.7678,22.1051 C126.1345,13.2288 133.1465,12.3626 139.9269,19.3405 C144.5971,7.9109 151.4881,6.5073 159.8722,15.7587 C168.4312,6 175.5213,8.3371 182.0898,18.032 C187.85,9.9262 196.2923,11.9793 200.4564,19.8652 C207.6549,11.9181 215.1239,12.8231 219.1651,23.1055 C226.6898,13.2761 234.7576,13.0838 240.5295,24.8403 C247.0797,17.2802 255.0253,15.7141 260.2931,26.2416 C265.5317,16.9154 271.4852,17.8948 277.997,24.8578 C285.3103,16.3785 294.0723,16.4047 298.4448,27.8725 C308.024,32.8111 308.6861,41.1946 300.5806,48.009 C309.9923,50.3903 311.3955,57.9946 304.3629,64.214 C313.2835,70.2366 315.2727,80.7939 303.338,85.8276 C310.9491,93.1315 309.6041,100.9386 299.198,104.1775 C293.178,112.4122 285.6665,111.2018 281.0132,102.6932 C276.0344,113.5297 268.2355,115.336 260.4733,105.4525 C253.5989,117.6187 245.8618,116.1997 238.3064,106.1315 C230.502,113.4769 224.0198,113.0547 218.6696,103.3115 C215.568,112.2316 207.9662,112.5678 201.8847,106.6919 C194.62,115.8266 187.0804,113.8129 181.4954,104.8043 C177.8709,115.8397 168.0163,114.664 162.1345,107.162 C155.0147,116.4373 146.1205,115.9853 140.269,105.7411 C132.6595,114.498 125.5382,112.8977 119.4342,103.9677 C116.0926,114.6258 107.1484,113.9309 101.2437,106.5527 C93.3283,114.9528 86.7179,114.6536 81.1811,104.0425 C74.8995,113.3933 67.6022,112.5757 62.6195,102.7831 C57.0886,113.8681 46.3921,115.2888 40.0099,103.6294 C34.0349,113.0419 28.8701,112.7044 22.824,103.6958 C11.8214,101.0911 10.4889,92.0641 18.0732,84.7889 C6.7671,81.3643 6,71.0637 14.4233,64.1501 C7.8262,57.9995 8.6455,50.968 16.678,46.7086 C9.4251,38.4655 10.8775,28.9332 22.9957,26.854 " fill="none" style="stroke:#181818;stroke-width:1.0;"/><text fill="#000000" font-family="sans-serif" font-size="14" font-weight="bold" lengthAdjust="spacing" textLength="32" x="142.6822" y="44.685">CDN</text></g><g id="cluster_##16"><path d="M573.8349,308.1525 C580.6639,299.7943 587.7258,298.1472 593.8191,308.921 C598.6479,296.0332 606.8488,296.5454 615.8366,304.5348 C620.8014,293.2162 628.8863,292.6004 637.3023,300.7244 C642.7361,290.0077 652.9449,286.6045 660.5064,298.5453 C668.3906,287.4637 677.8782,288.2667 683.1337,301.0388 C692.0053,290.2665 700.7158,293.4635 706.0191,304.7422 C715.7305,293.5589 722.8969,295.0811 729.7299,307.6193 C741.5832,296.597 751.1899,298.9193 756.6822,314.1498 C758.424,313.0137 759.9638,313.9034 760.016,315.9305 C770.8905,321.7962 771.635,332.9929 760.819,339.5947 C768.9311,346.3233 769.2975,357.2081 758.1019,361.5469 C769.74,369.1274 771.2166,376.9935 761.0122,387.0651 C772.426,394.9418 775.2943,402.7203 762.1797,411.7568 C772.5585,417.4108 771.6675,427.2404 761.4558,432.164 C773.7683,438.6681 771.7615,448.8641 762.1703,456.0241 C774.6117,464.1492 775.3146,474.2116 761.7833,481.949 C771.307,487.0222 772.4597,497.681 763.0773,503.8702 C772.6003,510.9477 774.1612,518.4865 762.5111,524.9966 C773.8165,534.1344 771.8521,543.6797 760.3272,550.8921 C769.7656,557.7483 767.9506,566.5892 758.3302,571.6081 C770.1294,579.736 771.5167,587.9169 760.2168,597.714 C769.6691,604.0842 771.9269,614.0145 760.7453,620.8558 C770.4819,634.8933 766.5967,644.9148 749.6822,648.1498 C750.3042,648.5659 750.2678,649.0253 749.7487,649.4976 C745.9567,660.3048 738.4533,660.2079 730.9818,653.4228 C725.5133,666.3851 716.3273,666.6585 707.6123,656.7384 C703.1591,668.3515 691.4701,673.3583 682.9198,660.9499 C678.8662,670.0692 670.9824,673.1692 663.8989,664.1223 C651.547,674.3602 642.8871,674.0375 637.2604,657.4451 C631.8626,666.3461 621.9604,669.3473 615.9434,658.1003 C607.0298,666.7771 595.4183,665.1716 592.3715,651.8219 C578.9001,662.3594 566.6416,657.0742 562.6822,641.1498 C564.6031,640.5032 565.4114,641.4239 565.1445,643.292 C553.3935,636.6183 553.407,630.0902 563.8421,622.0559 C551.3381,615.4846 550.5049,607.4451 561.5831,598.6025 C550.8154,591.784 551.5292,581.0391 562.7856,575.36 C551.3545,568.8064 548.7877,556.9791 562.1569,549.8152 C546.7822,545.6717 544.7422,534.3247 556.8432,524.43 C546.5409,517.2371 545.6772,510.742 556.109,502.8439 C545.4367,497.1213 543.1994,487.4489 554.5235,480.187 C542.7886,472.3745 545.9968,460.9022 558.0066,456.5955 C548.2609,448.799 549.0743,440.8142 559.4124,434.2831 C549.6771,426.7134 547.2467,415.3028 561.1648,409.3989 C549.3364,403.0214 549.6163,393.5888 559.3405,385.5618 C551.1104,377.4922 550.3192,366.7012 563.3557,362.3028 C552.1995,355.6862 554.4822,348.8435 562.8499,341.7465 C546.2648,328.0325 552.1503,314.1262 569.6822,307.1498 C571.5988,305.291 572.8762,306.044 573.8349,308.1525 " fill="none" style="stroke:#181818;stroke-width:1.0;"/></g><!--MD5=[257d31108b780615a2c9554bd453d565]
cluster backup--><g id="cluster_backup"><rect fill="none" height="293" rx="2.5" ry="2.5" style="stroke:#181818;stroke-width:1.0;" width="146" x="586.6822" y="331.1498"/><text fill="#000000" font-family="sans-serif" font-size="14" font-style="italic" lengthAdjust="spacing" textLength="71" x="624.1822" y="346.685">«optional»</text><text fill="#000000" font-family="sans-serif" font-size="14" font-style="italic" lengthAdjust="spacing" textLength="61" x="629.1822" y="363.1733">«service»</text><text fill="#000000" font-family="sans-serif" font-size="14" font-weight="bold" lengthAdjust="spacing" textLength="51" x="634.1822" y="379.6616">Backup</text></g><!--MD5=[4541fb81c80c07473fe4b07432ef0971]
entity app--><g id="elem_app"><rect fill="#FFC0CB" height="52.9766" rx="2.5" ry="2.5" style="stroke:#181818;stroke-width:0.5;" width="99" x="194.1822" y="199.1498"/><text fill="#000000" font-family="sans-serif" font-size="14" lengthAdjust="spacing" textLength="79" x="204.1822" y="222.685">Sustainable</text><text fill="#000000" font-family="sans-serif" font-size="14" lengthAdjust="spacing" textLength="61" x="204.1822" y="239.1733">Web App</text></g><!--MD5=[d4fd26f9614fa07fe76bdcffa998e3d3]
entity local--><g id="elem_local"><path d="M240.6822,540.1498 C240.6822,530.1498 283.6822,530.1498 283.6822,530.1498 C283.6822,530.1498 326.6822,530.1498 326.6822,540.1498 L326.6822,582.1264 C326.6822,592.1264 283.6822,592.1264 283.6822,592.1264 C283.6822,592.1264 240.6822,592.1264 240.6822,582.1264 L240.6822,540.1498 " fill="#F1F1F1" style="stroke:#181818;stroke-width:0.5;"/><path d="M240.6822,540.1498 C240.6822,550.1498 283.6822,550.1498 283.6822,550.1498 C283.6822,550.1498 326.6822,550.1498 326.6822,540.1498 " fill="none" style="stroke:#181818;stroke-width:0.5;"/><text fill="#000000" font-family="sans-serif" font-size="14" font-style="italic" lengthAdjust="spacing" textLength="66" x="250.6822" y="567.685">«storage»</text><text fill="#000000" font-family="sans-serif" font-size="14" lengthAdjust="spacing" textLength="32" x="267.6822" y="584.1733">local</text></g><!--MD5=[2428808ca108f759c26f353e279b151e]
entity Graph--><g id="elem_Graph"><rect fill="#F1F1F1" height="36.4883" rx="2.5" ry="2.5" style="stroke:#181818;stroke-width:0.5;" width="62" x="252.6822" y="407.1498"/><text fill="#000000" font-family="sans-serif" font-size="14" lengthAdjust="spacing" textLength="42" x="262.6822" y="430.685">Graph</text></g><!--MD5=[02ab48b3985ee383ac7fbb2fd4890895]
entity origin--><g id="elem_origin"><rect fill="#F1F1F1" height="36.4883" rx="2.5" ry="2.5" style="stroke:#181818;stroke-width:0.5;" width="91" x="198.1822" y="55.6498"/><text fill="#000000" font-family="sans-serif" font-size="14" lengthAdjust="spacing" textLength="71" x="208.1822" y="79.185">app origin</text></g><g id="elem_GMN11"><path d="M28.1822,53.1498 L28.1822,93.7709 A0,0 0 0 0 28.1822,93.7709 L163.1822,93.7709 A0,0 0 0 0 163.1822,93.7709 L163.1822,77.6498 L198.1622,73.6498 L163.1822,69.6498 L163.1822,63.1498 L153.1822,53.1498 L28.1822,53.1498 A0,0 0 0 0 28.1822,53.1498 " fill="#FEFFDD" style="stroke:#181818;stroke-width:0.5;"/><path d="M153.1822,53.1498 L153.1822,63.1498 L163.1822,63.1498 L153.1822,53.1498 " fill="#FEFFDD" style="stroke:#181818;stroke-width:0.5;"/><text fill="#000000" font-family="sans-serif" font-size="13" lengthAdjust="spacing" textLength="103" x="34.1822" y="70.7182">Serves the static</text><text fill="#000000" font-family="sans-serif" font-size="13" lengthAdjust="spacing" textLength="114" x="34.1822" y="86.0288">application assets</text></g><!--MD5=[7c5fc3b8910c5a8f6c35436fef7117de]
entity gwGraph--><g id="elem_gwGraph"><rect fill="#F1F1F1" height="36.4883" rx="2.5" ry="2.5" style="stroke:#181818;stroke-width:0.5;" width="62" x="617.6822" y="407.1498"/><text fill="#000000" font-family="sans-serif" font-size="14" lengthAdjust="spacing" textLength="42" x="627.6822" y="430.685">Graph</text></g><!--MD5=[d8ac9dbbbd15cdc525358aa3658d2d2e]
entity gwDb--><g id="elem_gwDb"><path d="M611.1822,532.1498 C611.1822,522.1498 655.6822,522.1498 655.6822,522.1498 C655.6822,522.1498 700.1822,522.1498 700.1822,532.1498 L700.1822,590.6147 C700.1822,600.6147 655.6822,600.6147 655.6822,600.6147 C655.6822,600.6147 611.1822,600.6147 611.1822,590.6147 L611.1822,532.1498 " fill="#F1F1F1" style="stroke:#181818;stroke-width:0.5;"/><path d="M611.1822,532.1498 C611.1822,542.1498 655.6822,542.1498 655.6822,542.1498 C655.6822,542.1498 700.1822,542.1498 700.1822,532.1498 " fill="none" style="stroke:#181818;stroke-width:0.5;"/><text fill="#000000" font-family="sans-serif" font-size="14" font-style="italic" lengthAdjust="spacing" textLength="66" x="622.6822" y="559.685">«storage»</text><text fill="#000000" font-family="sans-serif" font-size="14" lengthAdjust="spacing" textLength="69" x="621.1822" y="576.1733">volume or</text><text fill="#000000" font-family="sans-serif" font-size="14" lengthAdjust="spacing" textLength="62" x="621.1822" y="592.6616">database</text></g><!--MD5=[9ae5ad255f6debb40ed35199de901202]
entity messaging--><g id="elem_messaging"><path d="M398.0091,539.4614 C401.2416,532.9578 406.4273,532.8731 410.5389,538.5577 C415.2561,533.2622 419.3027,533.418 423.5305,539.135 C427.8493,533.078 433.1023,532.652 437.6299,538.8958 C441.6942,533.614 445.8768,532.6145 450.2173,538.5869 C453.7437,531.6373 459.7641,531.7657 464.1612,537.6401 C468.0142,531.1423 472.2245,531.387 476.9301,536.72 C481.9002,531.4406 486.6796,530.4106 490.8507,537.6112 C495.7343,531.7867 499.7303,532.3641 503.7015,538.5847 C507.2095,534.0065 512.5244,534.0828 515.3735,539.3647 C518.8622,531.4828 526.0231,531.9851 529.9221,538.963 C534.8764,542.8102 536.7152,546.4953 530.3904,550.7893 C537.0358,552.5027 538.9648,557.6447 533.3984,562.4958 C537.3621,566.7668 536.8014,570.1983 531.9872,573.3255 C537.746,578.4993 537.0141,582.4885 529.9314,585.4925 C527.3894,591.3118 523.4051,592.4618 518.564,588.0459 C514.6575,593.2263 510.2209,592.9699 506.638,587.6773 C503.6062,593.4873 500.1611,592.9166 495.9249,589.0046 C493.4952,593.77 490.3607,595.1072 486.1433,590.9684 C483.1936,597.8448 479.4857,599.3568 473.8463,593.5829 C471.3634,598.5926 466.5464,599.1175 462.9819,594.8496 C459.7405,598.7416 455.9933,598.1794 453.5397,593.9354 C448.887,598.808 443.7097,597.2866 442.729,590.5238 C439.4037,594.7577 435.2608,595.7316 432.0561,590.3894 C426.9098,595.4991 422.3803,595.1674 419.7304,587.9028 C416.3679,592.458 411.9761,591.3322 409.5297,586.867 C405.7026,591.9609 400.9131,590.7435 399.2098,584.8688 C394.3259,582.7127 392.2104,579.5208 396.4977,574.8757 C389.7514,572.6765 387.4549,567.5583 393.0093,562.021 C388.0782,557.2549 388.4997,552.6766 395.517,550.5144 C390.8376,546.3658 391.9262,541.1834 398.0091,539.4614 " fill="#F1F1F1" style="stroke:#181818;stroke-width:0.5;"/><text fill="#000000" font-family="sans-serif" font-size="14" font-style="italic" lengthAdjust="spacing" textLength="61" x="432.1822" y="558.185">«service»</text><text fill="#000000" font-family="sans-serif" font-size="14" lengthAdjust="spacing" textLength="117" x="404.1822" y="574.6733">Message Delivery</text></g><!--MD5=[7354a1c4232ea769ff615c8d0fd225cf]
entity dapi--><g id="elem_dapi"><ellipse cx="828.6822" cy="561.1498" fill="#F1F1F1" rx="8" ry="8" style="stroke:#181818;stroke-width:0.5;"/><text fill="#000000" font-family="sans-serif" font-size="14" lengthAdjust="spacing" textLength="80" x="788.6822" y="591.685">Linked Data</text><text fill="#000000" font-family="sans-serif" font-size="14" font-style="italic" lengthAdjust="spacing" textLength="48" x="804.6822" y="541.1967">«REST»</text></g><!--MD5=[8a4ab38f2a7362826a68e1466d9b79c7]
entity others--><g id="elem_others"><rect fill="#F1F1F1" height="32.4883" rx="2.5" ry="2.5" style="stroke:#181818;stroke-width:0.5;" width="148" x="390.6822" y="411.1498"/><rect fill="#F1F1F1" height="32.4883" rx="2.5" ry="2.5" style="stroke:#181818;stroke-width:0.5;" width="148" x="386.6822" y="407.1498"/><text fill="#000000" font-family="sans-serif" font-size="14" lengthAdjust="spacing" textLength="132" x="394.6822" y="428.685">other collaborators</text></g><!--MD5=[b943d2e406cb5051d6fecfa1aabeb627]
link Graph to local--><g id="link_Graph_local"><path d="M283.6822,448.5098 C283.6822,469.3298 283.6822,500.7098 283.6822,524.8998 " fill="none" id="Graph-local" style="stroke:#181818;stroke-width:1.0;"/><polygon fill="#181818" points="283.6822,529.9398,287.6822,520.9398,283.6822,524.9398,279.6822,520.9398,283.6822,529.9398" style="stroke:#181818;stroke-width:1.0;"/><polygon fill="#181818" points="283.6822,443.3898,279.6822,452.3898,283.6822,448.3898,287.6822,452.3898,283.6822,443.3898" style="stroke:#181818;stroke-width:1.0;"/></g><!--MD5=[19e687695c6037daf037235e8a48c604]
link app to cwl--><g id="link_app_cwl"><path d="M240.2822,252.4698 C238.5472,265.6448 236.2972,282.7323 233.8908,301.0088 C232.6876,310.147 231.4453,319.5824 230.2087,328.9746 C229.5904,333.6707 228.9736,338.356 228.3637,342.9879 C228.2113,344.1459 228.0593,345.3006 227.9078,346.4512 C227.8699,346.7389 227.8321,347.0263 227.7943,347.3134 " fill="none" id="app-to-cwl" style="stroke:#181818;stroke-width:1.0;"/><polygon fill="#181818" points="227.7943,347.3134,232.9348,338.9126,228.4469,342.3562,225.0032,337.8683,227.7943,347.3134" style="stroke:#181818;stroke-width:1.0;"/></g><!--MD5=[fdc95f98a61cb938989a58fa8240b344]
link gwGraph to gwDb--><g id="link_gwGraph_gwDb"><path d="M649.8522,448.5198 C650.8222,467.1498 652.2422,494.2298 653.4322,517.0498 " fill="none" id="gwGraph-gwDb" style="stroke:#181818;stroke-width:1.0;"/><polygon fill="#181818" points="653.6922,522.1498,657.1971,512.9457,653.4204,517.1572,649.2089,513.3806,653.6922,522.1498" style="stroke:#181818;stroke-width:1.0;"/><polygon fill="#181818" points="649.5822,443.3898,646.0497,452.5834,649.839,448.3833,654.0392,452.1725,649.5822,443.3898" style="stroke:#181818;stroke-width:1.0;"/></g><!--MD5=[28fbda790cd8cf689a141124c76591ab]
link backup to dapi--><g id="link_backup_dapi"><path d="M732.8615,436.6908 C734.4065,438.6819 736.1371,440.9121 738.0238,443.3433 C745.5703,453.068 755.6135,466.0086 766.2647,479.7323 C787.5672,507.1798 811.3022,537.7598 822.3622,552.0098 " fill="none" id="backup-dapi" style="stroke:#181818;stroke-width:1.0;"/></g><!--MD5=[ebc9bf35bf4ca6342df39c51ba7457c9]
link Graph to messaging--><g id="link_Graph_messaging"><path d="M306.7122,443.3898 C334.5722,464.2498 382.1122,499.8298 417.3922,526.2498 " fill="none" id="Graph-to-messaging" style="stroke:#181818;stroke-width:1.0;"/><polygon fill="#181818" points="421.6322,529.4198,416.8322,520.8198,417.6322,526.4198,412.0322,527.2198,421.6322,529.4198" style="stroke:#181818;stroke-width:1.0;"/></g><!--MD5=[a98a55c3c3019bd80a0efaf81f5786ff]
link gwGraph to messaging--><g id="link_gwGraph_messaging"><path d="M624.7422,443.3898 C595.8022,464.2498 546.4122,499.8298 509.7422,526.2498 " fill="none" id="gwGraph-to-messaging" style="stroke:#181818;stroke-width:1.0;"/><polygon fill="#181818" points="505.3322,529.4198,514.9755,527.418,509.3931,526.5028,510.3083,520.9205,505.3322,529.4198" style="stroke:#181818;stroke-width:1.0;"/></g><!--MD5=[4eaff00038faae04547f8d0e24e4ce67]
link others to messaging--><g id="link_others_messaging"><path d="M462.6822,443.3898 C462.6822,463.7398 462.6822,498.0998 462.6822,524.2998 " fill="none" id="others-to-messaging" style="stroke:#181818;stroke-width:1.0;"/><polygon fill="#181818" points="462.6822,529.4198,466.6822,520.4198,462.6822,524.4198,458.6822,520.4198,462.6822,529.4198" style="stroke:#181818;stroke-width:1.0;"/></g><!--MD5=[c080b03a590b10f00d095053c07a15c8]
link origin to app--><g id="link_origin_app"><path d="M243.6822,91.8598 C243.6822,116.6598 243.6822,162.8698 243.6822,193.6998 " fill="none" id="origin-to-app" style="stroke:#181818;stroke-width:1.0;stroke-dasharray:7.0,7.0;"/><polygon fill="#181818" points="243.6822,198.8898,247.6822,189.8898,243.6822,193.8898,239.6822,189.8898,243.6822,198.8898" style="stroke:#181818;stroke-width:1.0;"/><text fill="#000000" font-family="sans-serif" font-size="13" lengthAdjust="spacing" textLength="33" x="244.6822" y="139.7182">HTTP</text></g><!--MD5=[8e769a1afff150ead17197314df7186e]
@startuml
'https://plantuml.com/component-diagram
skinparam componentStyle rectangle

node "Web Browser" {
  component "Sustainable\nWeb App" as app #pink
  component "Collaborative\nWeb Library" as cwl {
    [Graph]
  }

  database local <<storage>>

  Graph <- -> local

  app - -> cwl
}

cloud CDN {
  [app origin] as origin
  note left
    Serves the static
    application assets
  end note
}

cloud "Message Delivery" as messaging <<service>>

interface "Linked Data" as dapi <<REST>>

cloud {
  component "Backup" as backup <<optional>> <<service>> {
    component "Graph" as gwGraph
    database "volume or\ndatabase" <<storage>> as gwDb
    gwGraph <- -> gwDb
  }
  backup - - dapi
}

collections "other collaborators" as others

Graph - -> messaging
gwGraph - -> messaging
others - -> messaging

origin ..> app: HTTP

@enduml

@startuml
skinparam componentStyle rectangle

node "Web Browser" {
  component "Sustainable\nWeb App" as app #pink
  component "Collaborative\nWeb Library" as cwl {
    [Graph]
  }

  database local <<storage>>

  Graph <- -> local

  app - -> cwl
}

cloud CDN {
  [app origin] as origin
  note left
    Serves the static
    application assets
  end note
}

cloud "Message Delivery" as messaging <<service>>

interface "Linked Data" as dapi <<REST>>

cloud {
  component "Backup" as backup <<optional>> <<service>> {
    component "Graph" as gwGraph
    database "volume or\ndatabase" <<storage>> as gwDb
    gwGraph <- -> gwDb
  }
  backup - - dapi
}

collections "other collaborators" as others

Graph - -> messaging
gwGraph - -> messaging
others - -> messaging

origin ..> app: HTTP

@enduml

PlantUML version 1.2022.8(Sun Sep 25 10:00:33 BST 2022)
(GPL source distribution)
Java Runtime: OpenJDK Runtime Environment
JVM: OpenJDK 64-Bit Server VM
Default Encoding: UTF-8
Language: en
Country: GB
--></g></svg>