<?xml version="1.0" encoding="UTF-8" standalone="no"?><svg xmlns="http://www.w3.org/2000/svg" xmlns:xlink="http://www.w3.org/1999/xlink" contentStyleType="text/css" height="846px" preserveAspectRatio="none" style="width:929px;height:846px;background:#FFFFFF;" version="1.1" viewBox="0 0 929 846" width="929px" zoomAndPan="magnify"><defs/><g><!--MD5=[4580b62c293d3e8125622e25a17d625f]
cluster Web Browser--><g id="cluster_Web Browser"><polygon fill="none" points="32.1436,179.2259,42.1436,169.2259,424.1436,169.2259,424.1436,765.2259,414.1436,775.2259,32.1436,775.2259,32.1436,179.2259" style="stroke:#181818;stroke-width:1.0;"/><line style="stroke:#181818;stroke-width:1.0;" x1="414.1436" x2="424.1436" y1="179.2259" y2="169.2259"/><line style="stroke:#181818;stroke-width:1.0;" x1="32.1436" x2="414.1436" y1="179.2259" y2="179.2259"/><line style="stroke:#181818;stroke-width:1.0;" x1="414.1436" x2="414.1436" y1="179.2259" y2="775.2259"/><text fill="#000000" font-family="sans-serif" font-size="14" font-weight="bold" lengthAdjust="spacing" textLength="93" x="177.6436" y="195.7611">Web Browser</text></g><!--MD5=[8b7aa8b79f2e21fefe8ba3e6e1eb51b0]
cluster cwl--><g id="cluster_cwl"><rect fill="none" height="293" rx="2.5" ry="2.5" style="stroke:#181818;stroke-width:1.0;" width="344" x="56.1436" y="349.2259"/><text fill="#000000" font-family="sans-serif" font-size="14" font-weight="bold" lengthAdjust="spacing" textLength="96" x="180.1436" y="364.7611">Collaborative</text><text fill="#000000" font-family="sans-serif" font-size="14" font-weight="bold" lengthAdjust="spacing" textLength="85" x="185.6436" y="381.2494">Web Library</text></g><!--MD5=[fac864e77539af95038f0151207ed802]
cluster API--><g id="cluster_API"><rect fill="none" height="194" rx="2.5" ry="2.5" style="stroke:#181818;stroke-width:1.0;" width="223" x="153.1436" y="424.2259"/><path d="M187.1436,424.2259 L187.1436,433.7142 L177.1436,443.7142 L153.1436,443.7142 " fill="none" style="stroke:#181818;stroke-width:1.0;"/><text fill="#000000" font-family="sans-serif" font-size="14" font-weight="bold" lengthAdjust="spacing" textLength="24" x="156.1436" y="438.7611">API</text></g><!--MD5=[809c8a75e25a5f1203e71bceecf343a3]
cluster CDN--><g id="cluster_CDN"><path d="M24.4314,19.5479 C28.4424,9.6374 37.0973,9.6001 43.42,17.0142 C51.6941,6 59.1641,7.897 65.2302,19.1745 C69.5682,10.9636 77.0627,10.7267 82.0229,18.5217 C87.1354,10.3115 96.0534,10.7049 100.2568,19.4967 C105.3901,10.5559 114.3018,7.364 121.1616,17.6161 C126.3414,8.6814 132.8247,9.6879 138.2583,17.3547 C145.0368,6.3918 152.5698,6.7408 158.6617,17.9855 C163.9277,9.4828 172.3488,7.7637 178.518,16.9729 C184.283,9.0781 190.3101,9.066 195.4776,17.5901 C202.8961,7.633 209.1843,9.167 216.2769,17.9519 C221.0486,9.07 228.1757,9.8598 233.0909,17.8086 C238.6588,8.5505 247.6104,8.4577 251.9769,18.9571 C257.325,7.6764 265.2095,9.6343 272.1558,17.2505 C282.6356,6.9106 292.1452,9.9107 295.1436,24.2259 C296.5698,23.3336 297.5946,23.6318 297.9059,25.3885 C306.566,30.5961 309.1381,38.3894 299.5624,45.1274 C308.485,51.502 307.382,59.9214 298.4156,65.2779 C308.9825,72.033 309.2809,83.6559 296.4507,88.4249 C305.1803,100.6524 300.7678,107.4515 288.1436,112.2259 C290.0194,111.4744 291.1645,112.2756 291.0345,114.3085 C286.6413,124.5221 278.2514,124.0776 272.6385,115.5027 C266.6013,124.2002 258.4179,123.3846 253.7518,114.0654 C248.6761,124.5603 240.0385,125.6924 233.3431,115.6771 C228.0526,125.571 220.1362,126.2863 213.9595,116.5523 C210.1139,127.2405 200.6995,127.254 194.6647,118.7535 C188.3229,126.4483 181.3058,126.6809 175.663,117.9451 C170.0762,124.6811 163.2922,124.5298 158.4098,117.0879 C152.769,129.1742 145.755,129.522 137.6351,119.4078 C132.0131,125.3356 124.106,124.2988 121.6113,115.9081 C116.9413,124.8028 108.909,126.1282 102.6112,117.6928 C95.369,126.2111 86.0547,126.0789 82.0913,114.367 C77.2864,124.3126 68.9253,124.5349 63.0822,115.4013 C57.989,124.8073 52.0933,124.3614 46.2867,116.0787 C31.8316,124.8754 21.3338,123.9941 17.1436,105.2259 C19.2485,104.1385 20.1353,104.9976 20.4627,107.0845 C9.7312,101.9746 8.7675,95.4372 16.1813,86.5451 C6.1266,80.3043 8.1536,70.7542 17.2741,65.5097 C7.5569,58.2414 10.4769,51.9564 18.8285,46.1381 C6,35.7583 9.4601,22.548 24.1436,17.2259 C25.3593,17.8618 25.5278,18.6254 24.4314,19.5479 " fill="none" style="stroke:#181818;stroke-width:1.0;"/><text fill="#000000" font-family="sans-serif" font-size="14" font-weight="bold" lengthAdjust="spacing" textLength="32" x="140.1436" y="35.7611">CDN</text></g><g id="cluster_##20"><path d="M625.8751,370.355 C636.1968,353.4701 649.2182,354.2863 658.1835,371.6351 C664.8011,358.7938 677.6143,356.8194 684.7761,371.1016 C695.1619,353.5209 705.2694,351.0142 718.4194,368.4456 C726.9602,355.816 738.5927,357.0462 744.538,370.996 C753.2958,352.8467 767.301,355.1049 777.8387,369.1551 C793.1534,354.9741 802.7775,359.5914 810.1436,377.2259 C811.1533,376.6023 812.1505,377.0097 812.0999,378.3062 C831.2949,386.9344 827.4368,402.8868 813.3026,412.6811 C826.0024,422.4511 827.7627,431.7868 812.4062,440.6579 C829.2007,449.3679 827.3082,460.8071 815.2305,472.1097 C827.3347,481.0089 829.7959,493.5598 815.0539,502.302 C831.8202,508.7365 832.6186,521.8777 819.4917,532.6793 C832.1913,543.7228 831.3404,556.0383 816.319,564.3003 C832.2135,571.3429 836.2049,586.9213 820.0431,597.5539 C834.2704,608.7769 830.1164,620.2968 815.2914,626.7997 C831.2124,636.6501 828.6883,646.2686 816.1565,656.9358 C832.8042,666.1979 832.1222,679.1444 816.2275,688.4799 C830.1511,697.3021 830.5484,713.0246 815.0085,720.7333 C828.6447,728.6607 825.2879,740.6893 813.4548,747.1168 C830.3737,757.2861 833.5088,768.5892 815.6671,781.0264 C830.6002,796.777 823.0495,812.2331 803.1436,815.2259 C804.8429,814.0527 806.0092,814.2545 806.5246,816.4236 C800.0824,832.9877 786.6505,835.8392 774.3518,822.7851 C765.4394,837.8568 753.1397,835.431 745.8555,821.2017 C737.8957,836.8352 726.3083,836.4223 717.2527,822.2534 C708.2471,835.0227 697.6789,839.702 687.2388,823.7526 C673.6733,835.9279 662.939,834.883 654.6803,817.8393 C637.6285,833.5037 624.1003,829.0208 616.1436,808.2259 C618.6469,808.7155 620.1318,810.7172 618.0122,813.0118 C603.3573,802.9787 601.806,792.0193 618.1414,782.1158 C605.2521,773.2384 604.7532,761.3998 616.9484,751.5435 C603.0431,741.6759 604.376,728.6555 618.5688,720.2425 C603.1596,712.5876 602.1388,697.1175 615.6465,686.9262 C602.3178,679.0334 601.868,667.1055 616.3344,659.9207 C600.9837,649.2757 601.9157,639.636 615.2321,628.0011 C600.9025,618.5734 599.9313,608.9901 612.0696,596.8733 C600.1272,585.7321 600.0047,571.2762 616.7208,564.2167 C600.9307,554.6336 599.5744,543.643 616.0029,533.3115 C601.2819,527.2971 600.6164,513.8254 613.7952,505.5892 C601.5857,494.3071 603.793,481.2419 618.6708,474.162 C604.4277,465.6812 600.2446,451.4386 616.5634,441.0148 C601.631,433.6442 602.6746,419.9921 617.2002,413.2984 C600.2541,398.9424 599.8681,379.0319 623.1436,370.2259 C624.0504,368.9487 625.0892,369.0741 625.8751,370.355 " fill="none" style="stroke:#181818;stroke-width:1.0;"/></g><!--MD5=[257d31108b780615a2c9554bd453d565]
cluster backup--><g id="cluster_backup"><rect fill="none" height="397" rx="2.5" ry="2.5" style="stroke:#181818;stroke-width:1.0;" width="146" x="640.1436" y="394.2259"/><text fill="#000000" font-family="sans-serif" font-size="14" font-style="italic" lengthAdjust="spacing" textLength="71" x="677.6436" y="409.7611">«optional»</text><text fill="#000000" font-family="sans-serif" font-size="14" font-style="italic" lengthAdjust="spacing" textLength="61" x="682.6436" y="426.2494">«service»</text><text fill="#000000" font-family="sans-serif" font-size="14" font-weight="bold" lengthAdjust="spacing" textLength="102" x="662.1436" y="442.7376">Secure Backup</text></g><!--MD5=[4541fb81c80c07473fe4b07432ef0971]
entity app--><g id="elem_app"><rect fill="#FFC0CB" height="52.9766" rx="2.5" ry="2.5" style="stroke:#181818;stroke-width:0.5;" width="99" x="191.6436" y="233.2259"/><text fill="#000000" font-family="sans-serif" font-size="14" lengthAdjust="spacing" textLength="79" x="201.6436" y="256.7611">Sustainable</text><text fill="#000000" font-family="sans-serif" font-size="14" lengthAdjust="spacing" textLength="61" x="201.6436" y="273.2494">Web App</text></g><!--MD5=[d4fd26f9614fa07fe76bdcffa998e3d3]
entity local--><g id="elem_local"><path d="M60.1436,707.2259 C60.1436,697.2259 103.1436,697.2259 103.1436,697.2259 C103.1436,697.2259 146.1436,697.2259 146.1436,707.2259 L146.1436,749.2025 C146.1436,759.2025 103.1436,759.2025 103.1436,759.2025 C103.1436,759.2025 60.1436,759.2025 60.1436,749.2025 L60.1436,707.2259 " fill="#F1F1F1" style="stroke:#181818;stroke-width:0.5;"/><path d="M60.1436,707.2259 C60.1436,717.2259 103.1436,717.2259 103.1436,717.2259 C103.1436,717.2259 146.1436,717.2259 146.1436,707.2259 " fill="none" style="stroke:#181818;stroke-width:0.5;"/><text fill="#000000" font-family="sans-serif" font-size="14" font-style="italic" lengthAdjust="spacing" textLength="66" x="70.1436" y="734.7611">«storage»</text><text fill="#000000" font-family="sans-serif" font-size="14" lengthAdjust="spacing" textLength="32" x="87.1436" y="751.2494">local</text></g><!--MD5=[2428808ca108f759c26f353e279b151e]
entity Graph--><g id="elem_Graph"><rect fill="#F1F1F1" height="36.4883" rx="2.5" ry="2.5" style="stroke:#181818;stroke-width:0.5;" width="62" x="72.1436" y="522.2259"/><text fill="#000000" font-family="sans-serif" font-size="14" lengthAdjust="spacing" textLength="42" x="82.1436" y="545.7611">Graph</text></g><!--MD5=[a096c1983bcf686c95ea726f28f7a0ed]
entity query--><g id="elem_query"><ellipse cx="215.1436" cy="540.2259" fill="#F1F1F1" rx="8" ry="8" style="stroke:#181818;stroke-width:0.5;"/><text fill="#000000" font-family="sans-serif" font-size="14" lengthAdjust="spacing" textLength="56" x="176.6436" y="570.7611">Reactive</text><text fill="#000000" font-family="sans-serif" font-size="14" lengthAdjust="spacing" textLength="77" x="176.6436" y="587.2494">Observable</text><text fill="#000000" font-family="sans-serif" font-size="14" lengthAdjust="spacing" textLength="41" x="176.6436" y="603.7376">Query</text></g><!--MD5=[703ea5a149c5871c74522bf38bdfe548]
entity data--><g id="elem_data"><ellipse cx="328.1436" cy="540.2259" fill="#F1F1F1" rx="8" ry="8" style="stroke:#181818;stroke-width:0.5;"/><text fill="#000000" font-family="sans-serif" font-size="14" lengthAdjust="spacing" textLength="49" x="303.6436" y="570.7611">Writing</text><text fill="#000000" font-family="sans-serif" font-size="14" lengthAdjust="spacing" textLength="31" x="303.6436" y="587.2494">Data</text></g><!--MD5=[02ab48b3985ee383ac7fbb2fd4890895]
entity origin--><g id="elem_origin"><rect fill="#F1F1F1" height="36.4883" rx="2.5" ry="2.5" style="stroke:#181818;stroke-width:0.5;" width="91" x="195.6436" y="65.7259"/><text fill="#000000" font-family="sans-serif" font-size="14" lengthAdjust="spacing" textLength="71" x="205.6436" y="89.2611">app origin</text></g><g id="elem_GMN15"><path d="M25.6436,63.2259 L25.6436,103.847 A0,0 0 0 0 25.6436,103.847 L160.6436,103.847 A0,0 0 0 0 160.6436,103.847 L160.6436,87.7259 L195.6236,83.7259 L160.6436,79.7259 L160.6436,73.2259 L150.6436,63.2259 L25.6436,63.2259 A0,0 0 0 0 25.6436,63.2259 " fill="#FEFFDD" style="stroke:#181818;stroke-width:0.5;"/><path d="M150.6436,63.2259 L150.6436,73.2259 L160.6436,73.2259 L150.6436,63.2259 " fill="#FEFFDD" style="stroke:#181818;stroke-width:0.5;"/><text fill="#000000" font-family="sans-serif" font-size="13" lengthAdjust="spacing" textLength="103" x="31.6436" y="80.7943">Serves the static</text><text fill="#000000" font-family="sans-serif" font-size="13" lengthAdjust="spacing" textLength="114" x="31.6436" y="96.1048">application assets</text></g><!--MD5=[7c5fc3b8910c5a8f6c35436fef7117de]
entity gwGraph--><g id="elem_gwGraph"><rect fill="#F1F1F1" height="36.4883" rx="2.5" ry="2.5" style="stroke:#181818;stroke-width:0.5;" width="62" x="664.1436" y="522.2259"/><text fill="#000000" font-family="sans-serif" font-size="14" lengthAdjust="spacing" textLength="42" x="674.1436" y="545.7611">Graph</text></g><!--MD5=[d8ac9dbbbd15cdc525358aa3658d2d2e]
entity gwDb--><g id="elem_gwDb"><path d="M664.6436,699.2259 C664.6436,689.2259 709.1436,689.2259 709.1436,689.2259 C709.1436,689.2259 753.6436,689.2259 753.6436,699.2259 L753.6436,757.6908 C753.6436,767.6908 709.1436,767.6908 709.1436,767.6908 C709.1436,767.6908 664.6436,767.6908 664.6436,757.6908 L664.6436,699.2259 " fill="#F1F1F1" style="stroke:#181818;stroke-width:0.5;"/><path d="M664.6436,699.2259 C664.6436,709.2259 709.1436,709.2259 709.1436,709.2259 C709.1436,709.2259 753.6436,709.2259 753.6436,699.2259 " fill="none" style="stroke:#181818;stroke-width:0.5;"/><text fill="#000000" font-family="sans-serif" font-size="14" font-style="italic" lengthAdjust="spacing" textLength="66" x="676.1436" y="726.7611">«storage»</text><text fill="#000000" font-family="sans-serif" font-size="14" lengthAdjust="spacing" textLength="69" x="674.6436" y="743.2494">volume or</text><text fill="#000000" font-family="sans-serif" font-size="14" lengthAdjust="spacing" textLength="62" x="674.6436" y="759.7376">database</text></g><!--MD5=[9ae5ad255f6debb40ed35199de901202]
entity messaging--><g id="elem_messaging"><path d="M451.4705,706.5375 C454.7029,700.0339 459.8887,699.9491 464.0002,705.6337 C468.7175,700.3383 472.7641,700.4941 476.9919,706.2111 C481.3107,700.1541 486.5637,699.7281 491.0913,705.9718 C495.1556,700.6901 499.3382,699.6906 503.6787,705.6629 C507.2051,698.7134 513.2255,698.8418 517.6226,704.7162 C521.4756,698.2184 525.6858,698.4631 530.3914,703.7961 C535.3615,698.5167 540.141,697.4867 544.312,704.6873 C549.1957,698.8628 553.1917,699.4402 557.1629,705.6608 C560.6709,701.0826 565.9857,701.1589 568.8348,706.4408 C572.3235,698.5589 579.4845,699.0612 583.3835,706.0391 C588.3378,709.8863 590.1765,713.5714 583.8518,717.8653 C590.4972,719.5787 592.4261,724.7207 586.8597,729.5719 C590.8235,733.8429 590.2628,737.2744 585.4486,740.4016 C591.2074,745.5754 590.4755,749.5646 583.3928,752.5686 C580.8507,758.3879 576.8665,759.5379 572.0254,755.122 C568.1188,760.3024 563.6822,760.046 560.0993,754.7534 C557.0675,760.5633 553.6225,759.9927 549.3862,756.0807 C546.9566,760.8461 543.822,762.1833 539.6047,758.0445 C536.6549,764.9209 532.9471,766.4329 527.3077,760.659 C524.8248,765.6687 520.0078,766.1936 516.4432,761.9257 C513.2019,765.8176 509.4547,765.2555 507.001,761.0115 C502.3483,765.884 497.1711,764.3627 496.1904,757.5998 C492.8651,761.8337 488.7222,762.8077 485.5175,757.4655 C480.3712,762.5751 475.8417,762.2435 473.1918,754.9789 C469.8293,759.5341 465.4375,758.4083 462.991,753.943 C459.164,759.037 454.3744,757.8195 452.6712,751.9448 C447.7873,749.7888 445.6718,746.5969 449.9591,741.9518 C443.2128,739.7526 440.9163,734.6344 446.4707,729.0971 C441.5396,724.331 441.961,719.7527 448.9783,717.5905 C444.299,713.4418 445.3876,708.2595 451.4705,706.5375 " fill="#F1F1F1" style="stroke:#181818;stroke-width:0.5;"/><text fill="#000000" font-family="sans-serif" font-size="14" font-style="italic" lengthAdjust="spacing" textLength="61" x="485.6436" y="725.2611">«service»</text><text fill="#000000" font-family="sans-serif" font-size="14" lengthAdjust="spacing" textLength="117" x="457.6436" y="741.7494">Message Delivery</text></g><!--MD5=[7354a1c4232ea769ff615c8d0fd225cf]
entity dapi--><g id="elem_dapi"><ellipse cx="882.1436" cy="728.2259" fill="#F1F1F1" rx="8" ry="8" style="stroke:#181818;stroke-width:0.5;"/><text fill="#000000" font-family="sans-serif" font-size="14" lengthAdjust="spacing" textLength="80" x="842.1436" y="758.7611">Linked Data</text><text fill="#000000" font-family="sans-serif" font-size="14" font-style="italic" lengthAdjust="spacing" textLength="48" x="858.1436" y="708.2728">«REST»</text></g><!--MD5=[8a4ab38f2a7362826a68e1466d9b79c7]
entity others--><g id="elem_others"><rect fill="#F1F1F1" height="32.4883" rx="2.5" ry="2.5" style="stroke:#181818;stroke-width:0.5;" width="148" x="444.1436" y="526.2259"/><rect fill="#F1F1F1" height="32.4883" rx="2.5" ry="2.5" style="stroke:#181818;stroke-width:0.5;" width="148" x="440.1436" y="522.2259"/><text fill="#000000" font-family="sans-serif" font-size="14" lengthAdjust="spacing" textLength="132" x="448.1436" y="543.7611">other collaborators</text></g><!--MD5=[b943d2e406cb5051d6fecfa1aabeb627]
link Graph to local--><g id="link_Graph_local"><path d="M103.1436,563.4659 C103.1436,595.1959 103.1436,653.7659 103.1436,691.5859 " fill="none" id="Graph-local" style="stroke:#181818;stroke-width:1.0;"/><polygon fill="#181818" points="103.1436,697.0059,107.1436,688.0059,103.1436,692.0059,99.1436,688.0059,103.1436,697.0059" style="stroke:#181818;stroke-width:1.0;"/><polygon fill="#181818" points="103.1436,558.3959,99.1436,567.3959,103.1436,563.3959,107.1436,567.3959,103.1436,558.3959" style="stroke:#181818;stroke-width:1.0;"/></g><!--MD5=[d200737cc0ecbdaac7acf85af707211d]
link app to query--><g id="link_app_query"><path d="M230.6136,286.2759 C227.2736,295.5459 223.9736,306.2059 222.1436,316.2259 C207.8136,394.7159 212.0136,491.2659 214.2036,526.0059 " fill="none" id="app-to-query" style="stroke:#181818;stroke-width:1.0;"/><polygon fill="#181818" points="214.5336,531.0359,217.9331,521.7924,214.2048,526.0468,209.9504,522.3185,214.5336,531.0359" style="stroke:#181818;stroke-width:1.0;"/></g><!--MD5=[4b92f26e7f06ea4ee51ed9ec96e4d4f8]
link app to data--><g id="link_app_data"><path d="M290.9436,284.7459 C302.8936,292.9959 314.2036,303.4559 321.1436,316.2259 C359.4136,386.6459 340.3936,488.9259 331.6936,525.5459 " fill="none" id="app-to-data" style="stroke:#181818;stroke-width:1.0;"/><polygon fill="#181818" points="330.3936,530.8459,336.4139,523.0513,331.5794,525.9886,328.6421,521.1541,330.3936,530.8459" style="stroke:#181818;stroke-width:1.0;"/></g><!--MD5=[fdc95f98a61cb938989a58fa8240b344]
link gwGraph to gwDb--><g id="link_gwGraph_gwDb"><path d="M696.8236,563.5059 C699.0436,593.0459 703.0136,645.8259 705.8536,683.4759 " fill="none" id="gwGraph-gwDb" style="stroke:#181818;stroke-width:1.0;"/><polygon fill="#181818" points="706.2636,688.9159,709.5839,679.6436,705.8921,683.9297,701.606,680.238,706.2636,688.9159" style="stroke:#181818;stroke-width:1.0;"/><polygon fill="#181818" points="696.4336,558.3959,693.1133,567.6682,696.8051,563.3821,701.0912,567.0739,696.4336,558.3959" style="stroke:#181818;stroke-width:1.0;"/></g><!--MD5=[28fbda790cd8cf689a141124c76591ab]
link backup to dapi--><g id="link_backup_dapi"><path d="M786.4122,556.0062 C786.5119,556.1845 786.6123,556.3642 786.7135,556.5453 C788.3329,559.442 790.1455,562.6845 792.1195,566.2155 C800.0155,580.3394 810.4923,599.0791 821.5011,618.7697 C843.5186,658.1509 867.6636,701.3359 877.5436,719.0059 " fill="none" id="backup-dapi" style="stroke:#181818;stroke-width:1.0;"/></g><!--MD5=[ebc9bf35bf4ca6342df39c51ba7457c9]
link Graph to messaging--><g id="link_Graph_messaging"><path d="M105.5036,558.3159 C109.9536,583.2359 122.0836,628.8859 153.1436,650.2259 C164.7036,658.1659 265.2436,656.3059 279.1436,658.2259 C344.4236,667.2259 361.2136,669.6759 424.1436,689.2259 C429.6836,690.9459 435.3636,692.8759 441.0336,694.9159 " fill="none" id="Graph-to-messaging" style="stroke:#181818;stroke-width:1.0;"/><polygon fill="#181818" points="445.7936,696.6559,438.7091,689.8142,441.0963,694.9426,435.9678,697.3298,445.7936,696.6559" style="stroke:#181818;stroke-width:1.0;"/></g><!--MD5=[a98a55c3c3019bd80a0efaf81f5786ff]
link gwGraph to messaging--><g id="link_gwGraph_messaging"><path d="M683.5436,558.4159 C668.0936,580.7259 639.3136,620.3459 610.1436,650.2259 C595.3336,665.3959 577.6736,680.5159 561.6736,693.2959 " fill="none" id="gwGraph-to-messaging" style="stroke:#181818;stroke-width:1.0;"/><polygon fill="#181818" points="557.6436,696.4959,567.1824,694.044,561.5632,693.3917,562.2156,687.7726,557.6436,696.4959" style="stroke:#181818;stroke-width:1.0;"/></g><!--MD5=[4eaff00038faae04547f8d0e24e4ce67]
link others to messaging--><g id="link_others_messaging"><path d="M516.1436,558.3959 C516.1436,588.5159 516.1436,651.4859 516.1436,691.4359 " fill="none" id="others-to-messaging" style="stroke:#181818;stroke-width:1.0;"/><polygon fill="#181818" points="516.1436,696.6659,520.1436,687.6659,516.1436,691.6659,512.1436,687.6659,516.1436,696.6659" style="stroke:#181818;stroke-width:1.0;"/></g><!--MD5=[bd9b848d99a692bde910973279869277]
link Graph to gwGraph--><g id="link_Graph_gwGraph"><path d="M102.0136,522.2159 C100.8536,485.8259 104.1036,403.8559 153.1436,366.9759 C234.3036,305.9259 523.9536,313.2559 610.1436,366.9759 C663.6136,400.3059 684.3936,478.1559 691.6636,517.1359 " fill="none" id="Graph-to-gwGraph" style="stroke:#181818;stroke-width:1.0;"/><polygon fill="#181818" points="692.5536,522.1459,694.9207,512.5858,691.6806,517.2227,687.0436,513.9826,692.5536,522.1459" style="stroke:#181818;stroke-width:1.0;"/><text fill="#000000" font-family="sans-serif" font-size="13" lengthAdjust="spacing" textLength="86" x="230.1436" y="329.7943">initial backup</text></g><!--MD5=[c080b03a590b10f00d095053c07a15c8]
link origin to app--><g id="link_origin_app"><path d="M241.1436,101.7259 C241.1436,130.9059 241.1436,190.9259 241.1436,227.7159 " fill="none" id="origin-to-app" style="stroke:#181818;stroke-width:1.0;stroke-dasharray:7.0,7.0;"/><polygon fill="#181818" points="241.1436,232.9659,245.1436,223.9659,241.1436,227.9659,237.1436,223.9659,241.1436,232.9659" style="stroke:#181818;stroke-width:1.0;"/><text fill="#000000" font-family="sans-serif" font-size="13" lengthAdjust="spacing" textLength="33" x="242.1436" y="149.7943">HTTP</text></g><!--MD5=[38319020a62a6bf5a3f43ac9a83ee01e]
@startuml
'https://plantuml.com/component-diagram
skinparam componentStyle rectangle

node "Web Browser" {
  component "Sustainable\nWeb App" as app #pink
  component "Collaborative\nWeb Library" as cwl {
    [Graph]
    frame API {
      interface "Reactive\nObservable\nQuery" as query
      interface "Writing\nData" as data
    }
  }

  database local <<storage>>

  Graph <- -> local

  app - -> query
  app - -> data
}

cloud CDN {
  [app origin] as origin
  note left
    Serves the static
    application assets
  end note
}

cloud "Message Delivery" as messaging <<service>>

interface "Linked Data" as dapi <<REST>>

cloud {
  component "Secure Backup" as backup <<optional>> <<service>> {
    component "Graph" as gwGraph
    database "volume or\ndatabase" <<storage>> as gwDb
    gwGraph <- -> gwDb
  }
  backup - - dapi
}

collections "other collaborators" as others

Graph - -> messaging
gwGraph - -> messaging
others - -> messaging

Graph -> gwGraph : initial backup

origin ..> app: HTTP

@enduml

@startuml
skinparam componentStyle rectangle

node "Web Browser" {
  component "Sustainable\nWeb App" as app #pink
  component "Collaborative\nWeb Library" as cwl {
    [Graph]
    frame API {
      interface "Reactive\nObservable\nQuery" as query
      interface "Writing\nData" as data
    }
  }

  database local <<storage>>

  Graph <- -> local

  app - -> query
  app - -> data
}

cloud CDN {
  [app origin] as origin
  note left
    Serves the static
    application assets
  end note
}

cloud "Message Delivery" as messaging <<service>>

interface "Linked Data" as dapi <<REST>>

cloud {
  component "Secure Backup" as backup <<optional>> <<service>> {
    component "Graph" as gwGraph
    database "volume or\ndatabase" <<storage>> as gwDb
    gwGraph <- -> gwDb
  }
  backup - - dapi
}

collections "other collaborators" as others

Graph - -> messaging
gwGraph - -> messaging
others - -> messaging

Graph -> gwGraph : initial backup

origin ..> app: HTTP

@enduml

PlantUML version 1.2022.8(Sun Sep 25 10:00:33 BST 2022)
(GPL source distribution)
Java Runtime: OpenJDK Runtime Environment
JVM: OpenJDK 64-Bit Server VM
Default Encoding: UTF-8
Language: en
Country: GB
--></g></svg>