<?xml version="1.0" encoding="UTF-8" standalone="no"?><svg xmlns="http://www.w3.org/2000/svg" xmlns:xlink="http://www.w3.org/1999/xlink" contentStyleType="text/css" height="760px" preserveAspectRatio="none" style="width:945px;height:760px;background:#FFFFFF;" version="1.1" viewBox="0 0 945 760" width="945px" zoomAndPan="magnify"><defs/><g><!--MD5=[4580b62c293d3e8125622e25a17d625f]
cluster Web Browser--><g id="cluster_Web Browser"><polygon fill="none" points="36.6822,169.1498,46.6822,159.1498,428.6822,159.1498,428.6822,680.1498,418.6822,690.1498,36.6822,690.1498,36.6822,169.1498" style="stroke:#181818;stroke-width:1.0;"/><line style="stroke:#181818;stroke-width:1.0;" x1="418.6822" x2="428.6822" y1="169.1498" y2="159.1498"/><line style="stroke:#181818;stroke-width:1.0;" x1="36.6822" x2="418.6822" y1="169.1498" y2="169.1498"/><line style="stroke:#181818;stroke-width:1.0;" x1="418.6822" x2="418.6822" y1="169.1498" y2="690.1498"/><text fill="#000000" font-family="sans-serif" font-size="14" font-weight="bold" lengthAdjust="spacing" textLength="93" x="182.1822" y="185.685">Web Browser</text></g><!--MD5=[8b7aa8b79f2e21fefe8ba3e6e1eb51b0]
cluster cwl--><g id="cluster_cwl"><rect fill="none" height="258" rx="2.5" ry="2.5" style="stroke:#181818;stroke-width:1.0;" width="344" x="60.6822" y="299.1498"/><text fill="#000000" font-family="sans-serif" font-size="14" font-weight="bold" lengthAdjust="spacing" textLength="96" x="184.6822" y="314.685">Collaborative</text><text fill="#000000" font-family="sans-serif" font-size="14" font-weight="bold" lengthAdjust="spacing" textLength="85" x="190.1822" y="331.1733">Web Library</text></g><!--MD5=[fac864e77539af95038f0151207ed802]
cluster API--><g id="cluster_API"><rect fill="none" height="175" rx="2.5" ry="2.5" style="stroke:#181818;stroke-width:1.0;" width="223" x="157.6822" y="358.1498"/><path d="M191.6822,358.1498 L191.6822,367.6381 L181.6822,377.6381 L157.6822,377.6381 " fill="none" style="stroke:#181818;stroke-width:1.0;"/><text fill="#000000" font-family="sans-serif" font-size="14" font-weight="bold" lengthAdjust="spacing" textLength="24" x="160.6822" y="372.685">API</text></g><!--MD5=[809c8a75e25a5f1203e71bceecf343a3]
cluster CDN--><g id="cluster_CDN"><path d="M22.9957,26.854 C29.9266,17.9975 35.8338,17.0624 42.3215,27.3025 C47.5904,18.0965 56.6842,18.0159 62.5757,26.5934 C67.9154,15.7056 74.3516,16.6911 81.812,24.3996 C87.0117,15.5218 95.0158,14.2028 101.7932,22.5719 C108.2934,12.1502 114.7967,12.3793 121.7678,22.1051 C126.1345,13.2288 133.1465,12.3626 139.9269,19.3405 C144.5971,7.9109 151.4881,6.5073 159.8722,15.7587 C168.4312,6 175.5213,8.3371 182.0898,18.032 C187.85,9.9262 196.2923,11.9793 200.4564,19.8652 C207.6549,11.9181 215.1239,12.8231 219.1651,23.1055 C226.6898,13.2761 234.7576,13.0838 240.5295,24.8403 C247.0797,17.2802 255.0253,15.7141 260.2931,26.2416 C265.5317,16.9154 271.4852,17.8948 277.997,24.8578 C285.3103,16.3785 294.0723,16.4047 298.4448,27.8725 C308.024,32.8111 308.6861,41.1946 300.5806,48.009 C309.9923,50.3903 311.3955,57.9946 304.3629,64.214 C313.2835,70.2366 315.2727,80.7939 303.338,85.8276 C310.9491,93.1315 309.6041,100.9386 299.198,104.1775 C293.178,112.4122 285.6665,111.2018 281.0132,102.6932 C276.0344,113.5297 268.2355,115.336 260.4733,105.4525 C253.5989,117.6187 245.8618,116.1997 238.3064,106.1315 C230.502,113.4769 224.0198,113.0547 218.6696,103.3115 C215.568,112.2316 207.9662,112.5678 201.8847,106.6919 C194.62,115.8266 187.0804,113.8129 181.4954,104.8043 C177.8709,115.8397 168.0163,114.664 162.1345,107.162 C155.0147,116.4373 146.1205,115.9853 140.269,105.7411 C132.6595,114.498 125.5382,112.8977 119.4342,103.9677 C116.0926,114.6258 107.1484,113.9309 101.2437,106.5527 C93.3283,114.9528 86.7179,114.6536 81.1811,104.0425 C74.8995,113.3933 67.6022,112.5757 62.6195,102.7831 C57.0886,113.8681 46.3921,115.2888 40.0099,103.6294 C34.0349,113.0419 28.8701,112.7044 22.824,103.6958 C11.8214,101.0911 10.4889,92.0641 18.0732,84.7889 C6.7671,81.3643 6,71.0637 14.4233,64.1501 C7.8262,57.9995 8.6455,50.968 16.678,46.7086 C9.4251,38.4655 10.8775,28.9332 22.9957,26.854 " fill="none" style="stroke:#181818;stroke-width:1.0;"/><text fill="#000000" font-family="sans-serif" font-size="14" font-weight="bold" lengthAdjust="spacing" textLength="32" x="142.6822" y="44.685">CDN</text></g><g id="cluster_##20"><path d="M642.3566,341.4629 C647.9461,327.8264 661.7017,325.3884 671.3213,336.8031 C678.4817,321.9834 690.6466,318.1807 701.3478,333.2455 C710.6646,318.0556 721.4301,320.0365 731.0689,332.9045 C742.5401,319.8867 754.5346,319.4325 763.7583,335.4361 C772.0023,323.7236 785.012,323.3521 790.438,338.2604 C803.4087,320.7906 819.6568,325.032 826.6822,344.1498 C828.5501,342.8458 830.0539,343.825 830.2883,345.8955 C843.3498,354.5148 841.7666,367.1377 826.9656,372.2434 C840.0263,379.4833 840.315,392.0949 828.1949,400.4329 C842.1737,408.8398 844.5467,421.9992 828.158,430.3687 C842.7375,435.0303 844.7913,447.0099 832.1049,455.8884 C843.219,464.4878 841.118,473.9962 829.264,479.8755 C843.8722,488.1421 847.6924,499.7801 832.2856,510.964 C845.8029,521.3703 844.074,530.4971 829.6048,538.143 C840.8034,543.1162 842.7464,555.0736 831.9835,562.2168 C844.9311,571.7795 840.9143,580.7997 829.368,587.8647 C844.3725,598.518 842.5431,608.1065 828.4107,617.8288 C840.2341,624.6256 843.5902,637.6524 829.6298,645.5818 C840.4798,653.7304 842.1979,666.2162 828.3383,673.2098 C842.5687,680.8478 840.8955,693.149 827.6182,700.0489 C837.9688,713.6209 837.9469,724.1221 819.6822,730.1498 C820.2341,730.2906 820.4244,730.6088 820.0897,731.1214 C814.0757,745.9853 800.9698,744.0806 793.5794,732.5013 C784.0669,747.9479 772.6711,747.1331 761.6378,734.2138 C754.6634,750.247 741.6998,750.4787 732.7156,736.1268 C723.5584,753.0638 709.9491,753.7776 700.4708,736.4288 C692.5049,748.8534 678.7939,746.8894 672.8107,734.2416 C657.088,749.6344 638.4929,743.6174 632.6822,723.1498 C634.6184,721.7218 636.7549,722.4346 636.7146,725.0978 C622.6157,719.3069 621.0331,711.3934 632.5633,701.1582 C619.3323,692.2307 617.1473,679.3365 632.217,670.0935 C621.5379,661.925 623.0124,652.0308 635.0567,646.6102 C620.2714,638.2231 620.6612,627.5358 633.1054,617.3337 C621.0103,611.7133 617.683,601.3102 629.8984,592.5448 C618.6817,581.0654 619.7557,570.97 633.2236,562.195 C621.0856,553.8564 619.0944,544.929 632.4523,535.8442 C618.4184,530.7501 618.1434,519.6659 628.9836,511.0868 C614.6873,500.8814 614.8625,491.854 629.7885,482.4705 C617.0887,472.4709 618.0881,461.6616 633.6481,455.7429 C618.6355,448.0347 617.2529,436.2873 630.8075,425.8633 C618.7617,415.9364 618.028,405.8245 633.4701,398.5802 C622.1264,389.1921 622.5015,381.3135 634.7823,373.1441 C620.4649,360.5924 620.0477,345.0797 639.6822,337.1498 C642.1741,337.2149 643.6678,339.0397 642.3566,341.4629 " fill="none" style="stroke:#181818;stroke-width:1.0;"/></g><!--MD5=[257d31108b780615a2c9554bd453d565]
cluster backup--><g id="cluster_backup"><rect fill="none" height="345" rx="2.5" ry="2.5" style="stroke:#181818;stroke-width:1.0;" width="146" x="656.6822" y="361.1498"/><text fill="#000000" font-family="sans-serif" font-size="14" font-style="italic" lengthAdjust="spacing" textLength="71" x="694.1822" y="376.685">«optional»</text><text fill="#000000" font-family="sans-serif" font-size="14" font-style="italic" lengthAdjust="spacing" textLength="61" x="699.1822" y="393.1733">«service»</text><text fill="#000000" font-family="sans-serif" font-size="14" font-weight="bold" lengthAdjust="spacing" textLength="102" x="678.6822" y="409.6616">Secure Backup</text></g><!--MD5=[4541fb81c80c07473fe4b07432ef0971]
entity app--><g id="elem_app"><rect fill="#FFC0CB" height="52.9766" rx="2.5" ry="2.5" style="stroke:#181818;stroke-width:0.5;" width="99" x="194.1822" y="199.1498"/><text fill="#000000" font-family="sans-serif" font-size="14" lengthAdjust="spacing" textLength="79" x="204.1822" y="222.685">Sustainable</text><text fill="#000000" font-family="sans-serif" font-size="14" lengthAdjust="spacing" textLength="61" x="204.1822" y="239.1733">Web App</text></g><!--MD5=[d4fd26f9614fa07fe76bdcffa998e3d3]
entity local--><g id="elem_local"><path d="M64.6822,622.1498 C64.6822,612.1498 107.6822,612.1498 107.6822,612.1498 C107.6822,612.1498 150.6822,612.1498 150.6822,622.1498 L150.6822,664.1264 C150.6822,674.1264 107.6822,674.1264 107.6822,674.1264 C107.6822,674.1264 64.6822,674.1264 64.6822,664.1264 L64.6822,622.1498 " fill="#F1F1F1" style="stroke:#181818;stroke-width:0.5;"/><path d="M64.6822,622.1498 C64.6822,632.1498 107.6822,632.1498 107.6822,632.1498 C107.6822,632.1498 150.6822,632.1498 150.6822,622.1498 " fill="none" style="stroke:#181818;stroke-width:0.5;"/><text fill="#000000" font-family="sans-serif" font-size="14" font-style="italic" lengthAdjust="spacing" textLength="66" x="74.6822" y="649.685">«storage»</text><text fill="#000000" font-family="sans-serif" font-size="14" lengthAdjust="spacing" textLength="32" x="91.6822" y="666.1733">local</text></g><!--MD5=[2428808ca108f759c26f353e279b151e]
entity Graph--><g id="elem_Graph"><rect fill="#F1F1F1" height="36.4883" rx="2.5" ry="2.5" style="stroke:#181818;stroke-width:0.5;" width="62" x="76.6822" y="437.1498"/><text fill="#000000" font-family="sans-serif" font-size="14" lengthAdjust="spacing" textLength="42" x="86.6822" y="460.685">Graph</text></g><!--MD5=[a096c1983bcf686c95ea726f28f7a0ed]
entity query--><g id="elem_query"><ellipse cx="219.6822" cy="455.1498" fill="#F1F1F1" rx="8" ry="8" style="stroke:#181818;stroke-width:0.5;"/><text fill="#000000" font-family="sans-serif" font-size="14" lengthAdjust="spacing" textLength="56" x="181.1822" y="485.685">Reactive</text><text fill="#000000" font-family="sans-serif" font-size="14" lengthAdjust="spacing" textLength="77" x="181.1822" y="502.1733">Observable</text><text fill="#000000" font-family="sans-serif" font-size="14" lengthAdjust="spacing" textLength="41" x="181.1822" y="518.6616">Query</text></g><!--MD5=[703ea5a149c5871c74522bf38bdfe548]
entity data--><g id="elem_data"><ellipse cx="332.6822" cy="455.1498" fill="#F1F1F1" rx="8" ry="8" style="stroke:#181818;stroke-width:0.5;"/><text fill="#000000" font-family="sans-serif" font-size="14" lengthAdjust="spacing" textLength="49" x="308.1822" y="485.685">Writing</text><text fill="#000000" font-family="sans-serif" font-size="14" lengthAdjust="spacing" textLength="31" x="308.1822" y="502.1733">Data</text></g><!--MD5=[02ab48b3985ee383ac7fbb2fd4890895]
entity origin--><g id="elem_origin"><rect fill="#F1F1F1" height="36.4883" rx="2.5" ry="2.5" style="stroke:#181818;stroke-width:0.5;" width="91" x="198.1822" y="55.6498"/><text fill="#000000" font-family="sans-serif" font-size="14" lengthAdjust="spacing" textLength="71" x="208.1822" y="79.185">app origin</text></g><g id="elem_GMN15"><path d="M28.1822,53.1498 L28.1822,93.7709 A0,0 0 0 0 28.1822,93.7709 L163.1822,93.7709 A0,0 0 0 0 163.1822,93.7709 L163.1822,77.6498 L198.1622,73.6498 L163.1822,69.6498 L163.1822,63.1498 L153.1822,53.1498 L28.1822,53.1498 A0,0 0 0 0 28.1822,53.1498 " fill="#FEFFDD" style="stroke:#181818;stroke-width:0.5;"/><path d="M153.1822,53.1498 L153.1822,63.1498 L163.1822,63.1498 L153.1822,53.1498 " fill="#FEFFDD" style="stroke:#181818;stroke-width:0.5;"/><text fill="#000000" font-family="sans-serif" font-size="13" lengthAdjust="spacing" textLength="103" x="34.1822" y="70.7182">Serves the static</text><text fill="#000000" font-family="sans-serif" font-size="13" lengthAdjust="spacing" textLength="114" x="34.1822" y="86.0288">application assets</text></g><!--MD5=[7c5fc3b8910c5a8f6c35436fef7117de]
entity gwGraph--><g id="elem_gwGraph"><rect fill="#F1F1F1" height="36.4883" rx="2.5" ry="2.5" style="stroke:#181818;stroke-width:0.5;" width="62" x="687.6822" y="437.1498"/><text fill="#000000" font-family="sans-serif" font-size="14" lengthAdjust="spacing" textLength="42" x="697.6822" y="460.685">Graph</text></g><!--MD5=[d8ac9dbbbd15cdc525358aa3658d2d2e]
entity gwDb--><g id="elem_gwDb"><path d="M681.1822,614.1498 C681.1822,604.1498 725.6822,604.1498 725.6822,604.1498 C725.6822,604.1498 770.1822,604.1498 770.1822,614.1498 L770.1822,672.6147 C770.1822,682.6147 725.6822,682.6147 725.6822,682.6147 C725.6822,682.6147 681.1822,682.6147 681.1822,672.6147 L681.1822,614.1498 " fill="#F1F1F1" style="stroke:#181818;stroke-width:0.5;"/><path d="M681.1822,614.1498 C681.1822,624.1498 725.6822,624.1498 725.6822,624.1498 C725.6822,624.1498 770.1822,624.1498 770.1822,614.1498 " fill="none" style="stroke:#181818;stroke-width:0.5;"/><text fill="#000000" font-family="sans-serif" font-size="14" font-style="italic" lengthAdjust="spacing" textLength="66" x="692.6822" y="641.685">«storage»</text><text fill="#000000" font-family="sans-serif" font-size="14" lengthAdjust="spacing" textLength="69" x="691.1822" y="658.1733">volume or</text><text fill="#000000" font-family="sans-serif" font-size="14" lengthAdjust="spacing" textLength="62" x="691.1822" y="674.6616">database</text></g><!--MD5=[9ae5ad255f6debb40ed35199de901202]
entity messaging--><g id="elem_messaging"><path d="M462.0091,621.4614 C465.2416,614.9578 470.4273,614.8731 474.5389,620.5577 C479.2561,615.2622 483.3027,615.418 487.5305,621.135 C491.8493,615.078 497.1023,614.652 501.6299,620.8958 C505.6942,615.614 509.8768,614.6145 514.2173,620.5869 C517.7437,613.6373 523.7641,613.7657 528.1612,619.6401 C532.0142,613.1423 536.2245,613.387 540.9301,618.72 C545.9002,613.4406 550.6796,612.4106 554.8507,619.6112 C559.7343,613.7867 563.7303,614.3641 567.7015,620.5847 C571.2095,616.0065 576.5244,616.0828 579.3735,621.3647 C582.8622,613.4828 590.0231,613.9851 593.9221,620.963 C598.8764,624.8102 600.7152,628.4953 594.3904,632.7893 C601.0358,634.5027 602.9648,639.6447 597.3984,644.4958 C601.3621,648.7668 600.8014,652.1983 595.9872,655.3255 C601.746,660.4993 601.0141,664.4885 593.9314,667.4925 C591.3894,673.3118 587.4051,674.4618 582.564,670.0459 C578.6575,675.2263 574.2209,674.9699 570.638,669.6773 C567.6062,675.4873 564.1611,674.9166 559.9249,671.0046 C557.4952,675.77 554.3607,677.1072 550.1433,672.9684 C547.1936,679.8448 543.4857,681.3568 537.8463,675.5829 C535.3634,680.5926 530.5464,681.1175 526.9819,676.8496 C523.7405,680.7416 519.9933,680.1794 517.5397,675.9354 C512.887,680.808 507.7097,679.2866 506.729,672.5238 C503.4037,676.7577 499.2608,677.7316 496.0561,672.3894 C490.9098,677.4991 486.3803,677.1674 483.7304,669.9028 C480.3679,674.458 475.9761,673.3322 473.5297,668.867 C469.7026,673.9609 464.9131,672.7435 463.2098,666.8688 C458.3259,664.7127 456.2104,661.5208 460.4977,656.8757 C453.7514,654.6765 451.4549,649.5583 457.0093,644.021 C452.0782,639.2549 452.4997,634.6766 459.517,632.5144 C454.8376,628.3658 455.9262,623.1834 462.0091,621.4614 " fill="#F1F1F1" style="stroke:#181818;stroke-width:0.5;"/><text fill="#000000" font-family="sans-serif" font-size="14" font-style="italic" lengthAdjust="spacing" textLength="61" x="496.1822" y="640.185">«service»</text><text fill="#000000" font-family="sans-serif" font-size="14" lengthAdjust="spacing" textLength="117" x="468.1822" y="656.6733">Message Delivery</text></g><!--MD5=[7354a1c4232ea769ff615c8d0fd225cf]
entity dapi--><g id="elem_dapi"><ellipse cx="898.6822" cy="643.1498" fill="#F1F1F1" rx="8" ry="8" style="stroke:#181818;stroke-width:0.5;"/><text fill="#000000" font-family="sans-serif" font-size="14" lengthAdjust="spacing" textLength="80" x="858.6822" y="673.685">Linked Data</text><text fill="#000000" font-family="sans-serif" font-size="14" font-style="italic" lengthAdjust="spacing" textLength="48" x="874.6822" y="623.1967">«REST»</text></g><!--MD5=[8a4ab38f2a7362826a68e1466d9b79c7]
entity others--><g id="elem_others"><rect fill="#F1F1F1" height="36.4883" rx="2.5" ry="2.5" style="stroke:#181818;stroke-width:0.5;" width="164" x="444.6822" y="437.1498"/><text fill="#000000" font-family="sans-serif" font-size="14" lengthAdjust="spacing" textLength="144" x="454.6822" y="460.685">other collaborators...</text></g><!--MD5=[b943d2e406cb5051d6fecfa1aabeb627]
link Graph to local--><g id="link_Graph_local"><path d="M107.6822,478.3898 C107.6822,510.1198 107.6822,568.6898 107.6822,606.5098 " fill="none" id="Graph-local" style="stroke:#181818;stroke-width:1.0;"/><polygon fill="#181818" points="107.6822,611.9298,111.6822,602.9298,107.6822,606.9298,103.6822,602.9298,107.6822,611.9298" style="stroke:#181818;stroke-width:1.0;"/><polygon fill="#181818" points="107.6822,473.3198,103.6822,482.3198,107.6822,478.3198,111.6822,482.3198,107.6822,473.3198" style="stroke:#181818;stroke-width:1.0;"/></g><!--MD5=[d200737cc0ecbdaac7acf85af707211d]
link app to query--><g id="link_app_query"><path d="M240.9722,252.2998 C235.8822,300.6198 225.0222,403.5598 221.1122,440.5598 " fill="none" id="app-to-query" style="stroke:#181818;stroke-width:1.0;"/><polygon fill="#181818" points="220.5522,445.9098,225.4813,437.3832,221.0808,440.9379,217.5262,436.5374,220.5522,445.9098" style="stroke:#181818;stroke-width:1.0;"/></g><!--MD5=[4b92f26e7f06ea4ee51ed9ec96e4d4f8]
link app to data--><g id="link_app_data"><path d="M261.1422,252.2198 C268.4822,263.7498 276.6922,277.7698 282.6822,291.1498 C306.5922,344.5998 323.4122,412.7698 329.8122,440.9998 " fill="none" id="app-to-data" style="stroke:#181818;stroke-width:1.0;"/><polygon fill="#181818" points="330.9522,446.0998,332.8777,436.441,329.854,441.222,325.0731,438.1982,330.9522,446.0998" style="stroke:#181818;stroke-width:1.0;"/></g><!--MD5=[fdc95f98a61cb938989a58fa8240b344]
link gwGraph to gwDb--><g id="link_gwGraph_gwDb"><path d="M719.5222,478.4298 C720.6322,507.9698 722.6222,560.7498 724.0322,598.3998 " fill="none" id="gwGraph-gwDb" style="stroke:#181818;stroke-width:1.0;"/><polygon fill="#181818" points="724.2422,603.8398,727.8793,594.6872,724.0424,598.8438,719.8857,595.0069,724.2422,603.8398" style="stroke:#181818;stroke-width:1.0;"/><polygon fill="#181818" points="719.3322,473.3198,715.67,482.4625,719.5183,478.3164,723.6645,482.1647,719.3322,473.3198" style="stroke:#181818;stroke-width:1.0;"/></g><!--MD5=[28fbda790cd8cf689a141124c76591ab]
link backup to dapi--><g id="link_backup_dapi"><path d="M802.9508,470.9301 C803.0505,471.1084 803.1509,471.2881 803.2521,471.4692 C804.8715,474.3659 806.6842,477.6084 808.6582,481.1394 C816.5541,495.2633 827.031,514.003 838.0397,533.6936 C860.0572,573.0748 884.2022,616.2598 894.0822,633.9298 " fill="none" id="backup-dapi" style="stroke:#181818;stroke-width:1.0;"/></g><!--MD5=[ebc9bf35bf4ca6342df39c51ba7457c9]
link Graph to messaging--><g id="link_Graph_messaging"><path d="M110.0422,473.2498 C114.4822,498.1698 126.6122,543.8298 157.6822,565.1498 C169.5222,573.2698 272.4622,571.1698 286.6822,573.1498 C350.6622,582.0598 366.8222,585.5298 428.6822,604.1498 C435.0222,606.0598 441.5222,608.1898 448.0222,610.4398 " fill="none" id="Graph-to-messaging" style="stroke:#181818;stroke-width:1.0;"/><polygon fill="#181818" points="452.9922,612.1798,445.8035,605.4477,448.2692,610.5389,443.1779,613.0046,452.9922,612.1798" style="stroke:#181818;stroke-width:1.0;"/></g><!--MD5=[a98a55c3c3019bd80a0efaf81f5786ff]
link gwGraph to messaging--><g id="link_gwGraph_messaging"><path d="M705.8022,473.3298 C688.6922,495.6398 656.9722,535.2498 625.6822,565.1498 C609.8622,580.2698 591.2122,595.3798 574.3822,608.1598 " fill="none" id="gwGraph-to-messaging" style="stroke:#181818;stroke-width:1.0;"/><polygon fill="#181818" points="570.1522,611.3598,579.7433,609.1214,574.1402,608.3439,574.9178,602.7407,570.1522,611.3598" style="stroke:#181818;stroke-width:1.0;"/></g><!--MD5=[4eaff00038faae04547f8d0e24e4ce67]
link others to messaging--><g id="link_others_messaging"><path d="M526.6822,473.3198 C526.6822,503.4398 526.6822,566.4098 526.6822,606.3598 " fill="none" id="others-to-messaging" style="stroke:#181818;stroke-width:1.0;"/><polygon fill="#181818" points="526.6822,611.5898,530.6822,602.5898,526.6822,606.5898,522.6822,602.5898,526.6822,611.5898" style="stroke:#181818;stroke-width:1.0;"/></g><!--MD5=[c080b03a590b10f00d095053c07a15c8]
link origin to app--><g id="link_origin_app"><path d="M243.6822,91.8598 C243.6822,116.6598 243.6822,162.8698 243.6822,193.6998 " fill="none" id="origin-to-app" style="stroke:#181818;stroke-width:1.0;stroke-dasharray:7.0,7.0;"/><polygon fill="#181818" points="243.6822,198.8898,247.6822,189.8898,243.6822,193.8898,239.6822,189.8898,243.6822,198.8898" style="stroke:#181818;stroke-width:1.0;"/><text fill="#000000" font-family="sans-serif" font-size="13" lengthAdjust="spacing" textLength="33" x="244.6822" y="139.7182">HTTP</text></g><!--MD5=[1d7b5f46b09a5ecc05bfc43a769d71cb]
@startuml
'https://plantuml.com/component-diagram
skinparam componentStyle rectangle

node "Web Browser" {
  component "Sustainable\nWeb App" as app #pink
  component "Collaborative\nWeb Library" as cwl {
    [Graph]
    frame API {
      interface "Reactive\nObservable\nQuery" as query
      interface "Writing\nData" as data
    }
  }

  database local <<storage>>

  Graph <- -> local

  app - -> query
  app - -> data
}

cloud CDN {
  [app origin] as origin
  note left
    Serves the static
    application assets
  end note
}

cloud "Message Delivery" as messaging <<service>>

interface "Linked Data" as dapi <<REST>>

cloud {
  component "Secure Backup" as backup <<optional>> <<service>> {
    component "Graph" as gwGraph
    database "volume or\ndatabase" <<storage>> as gwDb
    gwGraph <- -> gwDb
  }
  backup - - dapi
}

[other collaborators...] as others

Graph - -> messaging
gwGraph - -> messaging
others - -> messaging

origin ..> app: HTTP

@enduml

@startuml
skinparam componentStyle rectangle

node "Web Browser" {
  component "Sustainable\nWeb App" as app #pink
  component "Collaborative\nWeb Library" as cwl {
    [Graph]
    frame API {
      interface "Reactive\nObservable\nQuery" as query
      interface "Writing\nData" as data
    }
  }

  database local <<storage>>

  Graph <- -> local

  app - -> query
  app - -> data
}

cloud CDN {
  [app origin] as origin
  note left
    Serves the static
    application assets
  end note
}

cloud "Message Delivery" as messaging <<service>>

interface "Linked Data" as dapi <<REST>>

cloud {
  component "Secure Backup" as backup <<optional>> <<service>> {
    component "Graph" as gwGraph
    database "volume or\ndatabase" <<storage>> as gwDb
    gwGraph <- -> gwDb
  }
  backup - - dapi
}

[other collaborators...] as others

Graph - -> messaging
gwGraph - -> messaging
others - -> messaging

origin ..> app: HTTP

@enduml

PlantUML version 1.2022.8(Sun Sep 25 10:00:33 BST 2022)
(GPL source distribution)
Java Runtime: OpenJDK Runtime Environment
JVM: OpenJDK 64-Bit Server VM
Default Encoding: UTF-8
Language: en
Country: GB
--></g></svg>