<?xml version="1.0" encoding="UTF-8" standalone="no"?><svg xmlns="http://www.w3.org/2000/svg" xmlns:xlink="http://www.w3.org/1999/xlink" contentStyleType="text/css" height="657px" preserveAspectRatio="none" style="width:819px;height:657px;background:#FFFFFF;" version="1.1" viewBox="0 0 819 657" width="819px" zoomAndPan="magnify"><defs/><g><!--MD5=[4580b62c293d3e8125622e25a17d625f]
cluster Web Browser--><g id="cluster_Web Browser"><polygon fill="none" points="145.6822,169.1498,155.6822,159.1498,314.6822,159.1498,314.6822,581.1498,304.6822,591.1498,145.6822,591.1498,145.6822,169.1498" style="stroke:#181818;stroke-width:1.0;"/><line style="stroke:#181818;stroke-width:1.0;" x1="304.6822" x2="314.6822" y1="169.1498" y2="159.1498"/><line style="stroke:#181818;stroke-width:1.0;" x1="145.6822" x2="304.6822" y1="169.1498" y2="169.1498"/><line style="stroke:#181818;stroke-width:1.0;" x1="304.6822" x2="304.6822" y1="169.1498" y2="591.1498"/><text fill="#000000" font-family="sans-serif" font-size="14" font-weight="bold" lengthAdjust="spacing" textLength="93" x="179.6822" y="185.685">Web Browser</text></g><!--MD5=[8b7aa8b79f2e21fefe8ba3e6e1eb51b0]
cluster cwl--><g id="cluster_cwl"><rect fill="none" height="103" rx="2.5" ry="2.5" style="stroke:#181818;stroke-width:1.0;" width="115" x="175.6822" y="355.1498"/><text fill="#000000" font-family="sans-serif" font-size="14" font-weight="bold" lengthAdjust="spacing" textLength="99" x="183.6822" y="370.685">Shared-Graph</text><text fill="#000000" font-family="sans-serif" font-size="14" font-weight="bold" lengthAdjust="spacing" textLength="50" x="208.1822" y="387.1733">Library</text></g><!--MD5=[809c8a75e25a5f1203e71bceecf343a3]
cluster CDN--><g id="cluster_CDN"><path d="M22.9957,26.854 C29.9266,17.9975 35.8338,17.0624 42.3215,27.3025 C47.5904,18.0965 56.6842,18.0159 62.5757,26.5934 C67.9154,15.7056 74.3516,16.6911 81.812,24.3996 C87.0117,15.5218 95.0158,14.2028 101.7932,22.5719 C108.2934,12.1502 114.7967,12.3793 121.7678,22.1051 C126.1345,13.2288 133.1465,12.3626 139.9269,19.3405 C144.5971,7.9109 151.4881,6.5073 159.8722,15.7587 C168.4312,6 175.5213,8.3371 182.0898,18.032 C187.85,9.9262 196.2923,11.9793 200.4564,19.8652 C207.6549,11.9181 215.1239,12.8231 219.1651,23.1055 C226.6898,13.2761 234.7576,13.0838 240.5295,24.8403 C247.0797,17.2802 255.0253,15.7141 260.2931,26.2416 C265.5317,16.9154 271.4852,17.8948 277.997,24.8578 C285.3103,16.3785 294.0723,16.4047 298.4448,27.8725 C308.024,32.8111 308.6861,41.1946 300.5806,48.009 C309.9923,50.3903 311.3955,57.9946 304.3629,64.214 C313.2835,70.2366 315.2727,80.7939 303.338,85.8276 C310.9491,93.1315 309.6041,100.9386 299.198,104.1775 C293.178,112.4122 285.6665,111.2018 281.0132,102.6932 C276.0344,113.5297 268.2355,115.336 260.4733,105.4525 C253.5989,117.6187 245.8618,116.1997 238.3064,106.1315 C230.502,113.4769 224.0198,113.0547 218.6696,103.3115 C215.568,112.2316 207.9662,112.5678 201.8847,106.6919 C194.62,115.8266 187.0804,113.8129 181.4954,104.8043 C177.8709,115.8397 168.0163,114.664 162.1345,107.162 C155.0147,116.4373 146.1205,115.9853 140.269,105.7411 C132.6595,114.498 125.5382,112.8977 119.4342,103.9677 C116.0926,114.6258 107.1484,113.9309 101.2437,106.5527 C93.3283,114.9528 86.7179,114.6536 81.1811,104.0425 C74.8995,113.3933 67.6022,112.5757 62.6195,102.7831 C57.0886,113.8681 46.3921,115.2888 40.0099,103.6294 C34.0349,113.0419 28.8701,112.7044 22.824,103.6958 C11.8214,101.0911 10.4889,92.0641 18.0732,84.7889 C6.7671,81.3643 6,71.0637 14.4233,64.1501 C7.8262,57.9995 8.6455,50.968 16.678,46.7086 C9.4251,38.4655 10.8775,28.9332 22.9957,26.854 " fill="none" style="stroke:#181818;stroke-width:1.0;"/><text fill="#000000" font-family="sans-serif" font-size="14" font-weight="bold" lengthAdjust="spacing" textLength="32" x="142.6822" y="44.685">CDN</text></g><g id="cluster_##16"><path d="M516.8134,309.0833 C523.7852,298.7742 530.2578,298.0611 538.0693,308.2108 C542.995,296.8743 553.4602,295.3694 559.9268,306.7267 C566.632,294.7994 576.1515,295.4626 583.2756,306.297 C589.6137,295.2265 599.6729,293.1482 607.6792,304.4798 C614.2636,294.0395 622.3994,297.1986 627.6579,305.8661 C634.3936,293.1823 642.5936,294.7642 650.2349,304.973 C658.9412,294.4524 669.2904,294.8212 674.567,308.4313 C683.6032,299.0207 695.5954,300.7026 700.6822,313.1498 C702.3771,312.0417 703.7053,312.1119 704.3053,314.3392 C713.6072,321.912 712.8922,331.0524 701.2181,335.576 C714.3986,341.6729 715.7673,351.8397 703.9933,360.6938 C714.0339,366.4181 715.5428,372.7054 705.8564,380.3039 C715.3864,387.4359 717.6451,395.4248 705.9979,402.6907 C716.1684,410.2369 715.176,420.2697 702.9063,424.6576 C716.0647,431.8246 714.3327,440.6605 703.9778,448.8681 C713.5511,454.1463 715.0985,462.6122 706.5741,470.1031 C717.2099,478.0137 713.3422,485.9391 703.763,491.1497 C715.1412,498.4962 713.5917,510.1795 702.7725,516.6643 C712.7019,521.0684 716.1233,531.4333 705.8181,538.6415 C716.0333,546.7808 714.0432,554.555 704.4463,561.5056 C712.9221,567.1893 713.3823,575.2877 705.0288,581.4625 C713.2556,587.5065 712.7082,597.6338 703.4789,602.3846 C713.632,616.8308 711.16,626.114 693.6822,631.1498 C694.8102,630.1503 695.5454,630.4795 696.1612,631.7173 C690.6932,641.9721 680.5944,642.5515 673.7082,633.3543 C667.3564,645.1059 660.6976,647.9248 650.8718,636.8261 C645.4831,648.4722 635.6707,648.1501 628.7762,638.3797 C621.2407,647.872 611.5846,647.4787 605.3699,636.8439 C599.5,647.374 591.4586,646.4191 584.2235,638.4003 C574.5586,649.735 566.1396,648.5448 558.9076,635.8385 C553.7916,643.5645 545.5317,644.4078 540.1567,636.1422 C523.1168,650.4424 511.0939,645.0993 506.6822,624.1498 C509.5985,623.5185 510.6456,625.1983 509.8255,627.7918 C497.9884,622.1173 499.9231,611.8443 509.7346,606.0792 C499.8609,599.5589 497.0153,589.7804 508.8794,582.4725 C498.9794,576.5572 495.9769,565.707 508.2746,559.2145 C498.6347,553.8095 496.2562,544.2837 506.5311,537.2946 C495.968,530.6883 495.023,524.0661 505.8673,516.7676 C492.1704,509.1934 494.6282,500.09 505.4338,492.0855 C494.0461,488.0803 491.9209,477.888 501.8917,470.395 C491.1909,461.4772 493.3914,453.9314 504.921,448.0239 C495.2494,441.7471 496.7002,433.0791 506.4569,428.3165 C492.4738,421.0674 492.7832,412.7568 503.7646,402.8667 C491.8162,394.9199 494.1742,387.1982 504.9375,380.4391 C496.0397,372.9717 497.5325,365.6108 506.7724,359.7521 C494.1074,352.4058 497.1105,342.2304 507.884,335.9802 C496.9845,323.9291 499.3336,313.2935 513.6822,306.1498 C516.2313,305.3075 517.1104,306.8878 516.8134,309.0833 " fill="none" style="stroke:#181818;stroke-width:1.0;"/></g><!--MD5=[257d31108b780615a2c9554bd453d565]
cluster backup--><g id="cluster_backup"><rect fill="none" height="277" rx="2.5" ry="2.5" style="stroke:#181818;stroke-width:1.0;" width="146" x="530.6822" y="330.1498"/><text fill="#000000" font-family="sans-serif" font-size="14" font-style="italic" lengthAdjust="spacing" textLength="71" x="568.1822" y="345.685">«optional»</text><text fill="#000000" font-family="sans-serif" font-size="14" font-style="italic" lengthAdjust="spacing" textLength="61" x="573.1822" y="362.1733">«service»</text><text fill="#000000" font-family="sans-serif" font-size="14" font-weight="bold" lengthAdjust="spacing" textLength="51" x="578.1822" y="378.6616">Backup</text></g><!--MD5=[4541fb81c80c07473fe4b07432ef0971]
entity app--><g id="elem_app"><rect fill="#FFC0CB" height="36.4883" rx="2.5" ry="2.5" style="stroke:#181818;stroke-width:0.5;" width="81" x="203.1822" y="199.1498"/><text fill="#000000" font-family="sans-serif" font-size="14" lengthAdjust="spacing" textLength="61" x="213.1822" y="222.685">Web App</text></g><!--MD5=[d4fd26f9614fa07fe76bdcffa998e3d3]
entity local--><g id="elem_local"><path d="M200.6822,523.1498 C200.6822,513.1498 243.6822,513.1498 243.6822,513.1498 C243.6822,513.1498 286.6822,513.1498 286.6822,523.1498 L286.6822,565.1264 C286.6822,575.1264 243.6822,575.1264 243.6822,575.1264 C243.6822,575.1264 200.6822,575.1264 200.6822,565.1264 L200.6822,523.1498 " fill="#F1F1F1" style="stroke:#181818;stroke-width:0.5;"/><path d="M200.6822,523.1498 C200.6822,533.1498 243.6822,533.1498 243.6822,533.1498 C243.6822,533.1498 286.6822,533.1498 286.6822,523.1498 " fill="none" style="stroke:#181818;stroke-width:0.5;"/><text fill="#000000" font-family="sans-serif" font-size="14" font-style="italic" lengthAdjust="spacing" textLength="66" x="210.6822" y="550.685">«storage»</text><text fill="#000000" font-family="sans-serif" font-size="14" lengthAdjust="spacing" textLength="32" x="227.6822" y="567.1733">local</text></g><!--MD5=[2428808ca108f759c26f353e279b151e]
entity Graph--><g id="elem_Graph"><rect fill="#F1F1F1" height="36.4883" rx="2.5" ry="2.5" style="stroke:#181818;stroke-width:0.5;" width="62" x="212.6822" y="406.1498"/><text fill="#000000" font-family="sans-serif" font-size="14" lengthAdjust="spacing" textLength="42" x="222.6822" y="429.685">Graph</text></g><!--MD5=[02ab48b3985ee383ac7fbb2fd4890895]
entity origin--><g id="elem_origin"><rect fill="#F1F1F1" height="36.4883" rx="2.5" ry="2.5" style="stroke:#181818;stroke-width:0.5;" width="91" x="198.1822" y="55.6498"/><text fill="#000000" font-family="sans-serif" font-size="14" lengthAdjust="spacing" textLength="71" x="208.1822" y="79.185">app origin</text></g><g id="elem_GMN11"><path d="M28.1822,53.1498 L28.1822,93.7709 A0,0 0 0 0 28.1822,93.7709 L163.1822,93.7709 A0,0 0 0 0 163.1822,93.7709 L163.1822,77.6498 L198.1622,73.6498 L163.1822,69.6498 L163.1822,63.1498 L153.1822,53.1498 L28.1822,53.1498 A0,0 0 0 0 28.1822,53.1498 " fill="#FEFFDD" style="stroke:#181818;stroke-width:0.5;"/><path d="M153.1822,53.1498 L153.1822,63.1498 L163.1822,63.1498 L153.1822,53.1498 " fill="#FEFFDD" style="stroke:#181818;stroke-width:0.5;"/><text fill="#000000" font-family="sans-serif" font-size="13" lengthAdjust="spacing" textLength="103" x="34.1822" y="70.7182">Serves the static</text><text fill="#000000" font-family="sans-serif" font-size="13" lengthAdjust="spacing" textLength="114" x="34.1822" y="86.0288">application assets</text></g><!--MD5=[7c5fc3b8910c5a8f6c35436fef7117de]
entity gwGraph--><g id="elem_gwGraph"><rect fill="#F1F1F1" height="36.4883" rx="2.5" ry="2.5" style="stroke:#181818;stroke-width:0.5;" width="62" x="561.6822" y="406.1498"/><text fill="#000000" font-family="sans-serif" font-size="14" lengthAdjust="spacing" textLength="42" x="571.6822" y="429.685">Graph</text></g><!--MD5=[d8ac9dbbbd15cdc525358aa3658d2d2e]
entity gwDb--><g id="elem_gwDb"><path d="M555.1822,515.1498 C555.1822,505.1498 599.6822,505.1498 599.6822,505.1498 C599.6822,505.1498 644.1822,505.1498 644.1822,515.1498 L644.1822,573.6147 C644.1822,583.6147 599.6822,583.6147 599.6822,583.6147 C599.6822,583.6147 555.1822,583.6147 555.1822,573.6147 L555.1822,515.1498 " fill="#F1F1F1" style="stroke:#181818;stroke-width:0.5;"/><path d="M555.1822,515.1498 C555.1822,525.1498 599.6822,525.1498 599.6822,525.1498 C599.6822,525.1498 644.1822,525.1498 644.1822,515.1498 " fill="none" style="stroke:#181818;stroke-width:0.5;"/><text fill="#000000" font-family="sans-serif" font-size="14" font-style="italic" lengthAdjust="spacing" textLength="66" x="566.6822" y="542.685">«storage»</text><text fill="#000000" font-family="sans-serif" font-size="14" lengthAdjust="spacing" textLength="69" x="565.1822" y="559.1733">volume or</text><text fill="#000000" font-family="sans-serif" font-size="14" lengthAdjust="spacing" textLength="62" x="565.1822" y="575.6616">database</text></g><!--MD5=[9ae5ad255f6debb40ed35199de901202]
entity messaging--><g id="elem_messaging"><path d="M342.0091,522.4614 C345.2416,515.9578 350.4273,515.8731 354.5389,521.5577 C359.2561,516.2622 363.3027,516.418 367.5305,522.135 C371.8493,516.078 377.1023,515.652 381.6299,521.8958 C385.6942,516.614 389.8768,515.6145 394.2173,521.5869 C397.7437,514.6373 403.7641,514.7657 408.1612,520.6401 C412.0142,514.1423 416.2245,514.387 420.9301,519.72 C425.9002,514.4406 430.6796,513.4106 434.8507,520.6112 C439.7343,514.7867 443.7303,515.3641 447.7015,521.5847 C451.2095,517.0065 456.5244,517.0828 459.3735,522.3647 C462.8622,514.4828 470.0231,514.9851 473.9221,521.963 C478.8764,525.8102 480.7152,529.4953 474.3904,533.7893 C481.0358,535.5027 482.9648,540.6447 477.3984,545.4958 C481.3621,549.7668 480.8014,553.1983 475.9872,556.3255 C481.746,561.4993 481.0141,565.4885 473.9314,568.4925 C471.3894,574.3118 467.4051,575.4618 462.564,571.0459 C458.6575,576.2263 454.2209,575.9699 450.638,570.6773 C447.6062,576.4873 444.1611,575.9166 439.9249,572.0046 C437.4952,576.77 434.3607,578.1072 430.1433,573.9684 C427.1936,580.8448 423.4857,582.3568 417.8463,576.5829 C415.3634,581.5926 410.5464,582.1175 406.9819,577.8496 C403.7405,581.7416 399.9933,581.1794 397.5397,576.9354 C392.887,581.808 387.7097,580.2866 386.729,573.5238 C383.4037,577.7577 379.2608,578.7316 376.0561,573.3894 C370.9098,578.4991 366.3803,578.1674 363.7304,570.9028 C360.3679,575.458 355.9761,574.3322 353.5297,569.867 C349.7026,574.9609 344.9131,573.7435 343.2098,567.8688 C338.3259,565.7127 336.2104,562.5208 340.4977,557.8757 C333.7514,555.6765 331.4549,550.5583 337.0093,545.021 C332.0782,540.2549 332.4997,535.6766 339.517,533.5144 C334.8376,529.3658 335.9262,524.1834 342.0091,522.4614 " fill="#F1F1F1" style="stroke:#181818;stroke-width:0.5;"/><text fill="#000000" font-family="sans-serif" font-size="14" font-style="italic" lengthAdjust="spacing" textLength="61" x="376.1822" y="541.185">«service»</text><text fill="#000000" font-family="sans-serif" font-size="14" lengthAdjust="spacing" textLength="117" x="348.1822" y="557.6733">Message Delivery</text></g><!--MD5=[7354a1c4232ea769ff615c8d0fd225cf]
entity dapi--><g id="elem_dapi"><ellipse cx="772.6822" cy="544.1498" fill="#F1F1F1" rx="8" ry="8" style="stroke:#181818;stroke-width:0.5;"/><text fill="#000000" font-family="sans-serif" font-size="14" lengthAdjust="spacing" textLength="80" x="732.6822" y="574.685">Linked Data</text><text fill="#000000" font-family="sans-serif" font-size="14" font-style="italic" lengthAdjust="spacing" textLength="48" x="748.6822" y="524.1967">«REST»</text></g><!--MD5=[8a4ab38f2a7362826a68e1466d9b79c7]
entity others--><g id="elem_others"><rect fill="#F1F1F1" height="32.4883" rx="2.5" ry="2.5" style="stroke:#181818;stroke-width:0.5;" width="148" x="334.6822" y="410.1498"/><rect fill="#F1F1F1" height="32.4883" rx="2.5" ry="2.5" style="stroke:#181818;stroke-width:0.5;" width="148" x="330.6822" y="406.1498"/><text fill="#000000" font-family="sans-serif" font-size="14" lengthAdjust="spacing" textLength="132" x="338.6822" y="427.685">other collaborators</text></g><!--MD5=[b943d2e406cb5051d6fecfa1aabeb627]
link Graph to local--><g id="link_Graph_local"><path d="M243.6822,447.7698 C243.6822,464.6198 243.6822,487.9698 243.6822,507.3498 " fill="none" id="Graph-local" style="stroke:#181818;stroke-width:1.0;"/><polygon fill="#181818" points="243.6822,512.6998,247.6822,503.6998,243.6822,507.6998,239.6822,503.6998,243.6822,512.6998" style="stroke:#181818;stroke-width:1.0;"/><polygon fill="#181818" points="243.6822,442.3098,239.6822,451.3098,243.6822,447.3098,247.6822,451.3098,243.6822,442.3098" style="stroke:#181818;stroke-width:1.0;"/></g><!--MD5=[4961a88b629d6d7e3c25878fe2b1f3d8]
link app to Graph--><g id="link_app_Graph"><path d="M243.6822,235.2798 C243.6822,272.2798 243.6822,359.6798 243.6822,400.8998 " fill="none" id="app-to-Graph" style="stroke:#181818;stroke-width:1.0;"/><polygon fill="#181818" points="243.6822,405.9298,247.6822,396.9298,243.6822,400.9298,239.6822,396.9298,243.6822,405.9298" style="stroke:#181818;stroke-width:1.0;"/><text fill="#000000" font-family="sans-serif" font-size="13" lengthAdjust="spacing" textLength="53" x="244.6822" y="278.7182">«model»</text></g><!--MD5=[fdc95f98a61cb938989a58fa8240b344]
link gwGraph to gwDb--><g id="link_gwGraph_gwDb"><path d="M594.0122,447.5498 C594.8822,462.2298 596.0522,481.8998 597.1022,499.5898 " fill="none" id="gwGraph-gwDb" style="stroke:#181818;stroke-width:1.0;"/><polygon fill="#181818" points="597.4222,504.9998,600.9023,495.7863,597.137,500.008,592.9153,496.2427,597.4222,504.9998" style="stroke:#181818;stroke-width:1.0;"/><polygon fill="#181818" points="593.7022,442.3098,590.2237,451.524,593.9883,447.3017,598.2106,451.0663,593.7022,442.3098" style="stroke:#181818;stroke-width:1.0;"/></g><!--MD5=[28fbda790cd8cf689a141124c76591ab]
link backup to dapi--><g id="link_backup_dapi"><path d="M676.9577,434.5369 C677.0534,434.6455 677.1498,434.7549 677.2469,434.8651 C677.4411,435.0854 677.6381,435.3089 677.8378,435.5355 C678.2373,435.9886 678.6476,436.4542 679.0684,436.9316 C679.91,437.8864 680.7934,438.8887 681.7152,439.9345 C689.0894,448.3011 698.9166,459.4511 709.386,471.3298 C730.3247,495.0873 753.8322,521.7598 765.4222,534.9098 " fill="none" id="backup-dapi" style="stroke:#181818;stroke-width:1.0;"/></g><!--MD5=[ebc9bf35bf4ca6342df39c51ba7457c9]
link Graph to messaging--><g id="link_Graph_messaging"><path d="M267.3822,442.3098 C291.5322,459.7898 329.6422,487.3798 359.9022,509.2798 " fill="none" id="Graph-to-messaging" style="stroke:#181818;stroke-width:1.0;"/><polygon fill="#181818" points="364.3022,512.4698,359.3459,503.959,360.2481,509.5434,354.6636,510.4456,364.3022,512.4698" style="stroke:#181818;stroke-width:1.0;"/></g><!--MD5=[a98a55c3c3019bd80a0efaf81f5786ff]
link gwGraph to messaging--><g id="link_gwGraph_messaging"><path d="M565.6322,442.3098 C537.9622,459.8598 494.2322,487.6098 459.6422,509.5498 " fill="none" id="gwGraph-to-messaging" style="stroke:#181818;stroke-width:1.0;"/><polygon fill="#181818" points="455.0422,512.4698,464.7839,511.0211,459.2629,509.7892,460.4948,504.2681,455.0422,512.4698" style="stroke:#181818;stroke-width:1.0;"/></g><!--MD5=[4eaff00038faae04547f8d0e24e4ce67]
link others to messaging--><g id="link_others_messaging"><path d="M406.6822,442.3098 C406.6822,459.2298 406.6822,485.6198 406.6822,507.1598 " fill="none" id="others-to-messaging" style="stroke:#181818;stroke-width:1.0;"/><polygon fill="#181818" points="406.6822,512.2398,410.6822,503.2398,406.6822,507.2398,402.6822,503.2398,406.6822,512.2398" style="stroke:#181818;stroke-width:1.0;"/></g><!--MD5=[c080b03a590b10f00d095053c07a15c8]
link origin to app--><g id="link_origin_app"><path d="M243.6822,91.7198 C243.6822,117.3198 243.6822,165.6798 243.6822,193.9798 " fill="none" id="origin-to-app" style="stroke:#181818;stroke-width:1.0;stroke-dasharray:7.0,7.0;"/><polygon fill="#181818" points="243.6822,199.0198,247.6822,190.0198,243.6822,194.0198,239.6822,190.0198,243.6822,199.0198" style="stroke:#181818;stroke-width:1.0;"/><text fill="#000000" font-family="sans-serif" font-size="13" lengthAdjust="spacing" textLength="33" x="244.6822" y="139.7182">HTTP</text></g><!--MD5=[ade88a78b4cbbefacde07d8aef629f45]
@startuml
'https://plantuml.com/component-diagram
skinparam componentStyle rectangle

node "Web Browser" {
  component "Web App" as app #pink
  component "Shared-Graph\nLibrary" as cwl {
    [Graph]
  }

  database local <<storage>>

  Graph <- -> local

  app - -> Graph : <<model>>
}

cloud CDN {
  [app origin] as origin
  note left
    Serves the static
    application assets
  end note
}

cloud "Message Delivery" as messaging <<service>>

interface "Linked Data" as dapi <<REST>>

cloud {
  component "Backup" as backup <<optional>> <<service>> {
    component "Graph" as gwGraph
    database "volume or\ndatabase" <<storage>> as gwDb
    gwGraph <- -> gwDb
  }
  backup - - dapi
}

collections "other collaborators" as others

Graph - -> messaging
gwGraph - -> messaging
others - -> messaging

origin ..> app: HTTP

@enduml

@startuml
skinparam componentStyle rectangle

node "Web Browser" {
  component "Web App" as app #pink
  component "Shared-Graph\nLibrary" as cwl {
    [Graph]
  }

  database local <<storage>>

  Graph <- -> local

  app - -> Graph : <<model>>
}

cloud CDN {
  [app origin] as origin
  note left
    Serves the static
    application assets
  end note
}

cloud "Message Delivery" as messaging <<service>>

interface "Linked Data" as dapi <<REST>>

cloud {
  component "Backup" as backup <<optional>> <<service>> {
    component "Graph" as gwGraph
    database "volume or\ndatabase" <<storage>> as gwDb
    gwGraph <- -> gwDb
  }
  backup - - dapi
}

collections "other collaborators" as others

Graph - -> messaging
gwGraph - -> messaging
others - -> messaging

origin ..> app: HTTP

@enduml

PlantUML version 1.2022.8(Sun Sep 25 10:00:33 BST 2022)
(GPL source distribution)
Java Runtime: OpenJDK Runtime Environment
JVM: OpenJDK 64-Bit Server VM
Default Encoding: UTF-8
Language: en
Country: GB
--></g></svg>