<?xml version="1.0" encoding="UTF-8" standalone="no"?><svg xmlns="http://www.w3.org/2000/svg" xmlns:xlink="http://www.w3.org/1999/xlink" contentStyleType="text/css" height="760px" preserveAspectRatio="none" style="width:933px;height:760px;background:#FFFFFF;" version="1.1" viewBox="0 0 933 760" width="933px" zoomAndPan="magnify"><defs/><g><!--MD5=[4580b62c293d3e8125622e25a17d625f]
cluster Web Browser--><g id="cluster_Web Browser"><polygon fill="none" points="36.6822,169.1498,46.6822,159.1498,428.6822,159.1498,428.6822,680.1498,418.6822,690.1498,36.6822,690.1498,36.6822,169.1498" style="stroke:#181818;stroke-width:1.0;"/><line style="stroke:#181818;stroke-width:1.0;" x1="418.6822" x2="428.6822" y1="169.1498" y2="159.1498"/><line style="stroke:#181818;stroke-width:1.0;" x1="36.6822" x2="418.6822" y1="169.1498" y2="169.1498"/><line style="stroke:#181818;stroke-width:1.0;" x1="418.6822" x2="418.6822" y1="169.1498" y2="690.1498"/><text fill="#000000" font-family="sans-serif" font-size="14" font-weight="bold" lengthAdjust="spacing" textLength="93" x="182.1822" y="185.685">Web Browser</text></g><!--MD5=[8b7aa8b79f2e21fefe8ba3e6e1eb51b0]
cluster cwl--><g id="cluster_cwl"><rect fill="none" height="258" rx="2.5" ry="2.5" style="stroke:#181818;stroke-width:1.0;" width="344" x="60.6822" y="299.1498"/><text fill="#000000" font-family="sans-serif" font-size="14" font-weight="bold" lengthAdjust="spacing" textLength="96" x="184.6822" y="314.685">Collaborative</text><text fill="#000000" font-family="sans-serif" font-size="14" font-weight="bold" lengthAdjust="spacing" textLength="85" x="190.1822" y="331.1733">Web Library</text></g><!--MD5=[fac864e77539af95038f0151207ed802]
cluster API--><g id="cluster_API"><rect fill="none" height="175" rx="2.5" ry="2.5" style="stroke:#181818;stroke-width:1.0;" width="223" x="157.6822" y="358.1498"/><path d="M191.6822,358.1498 L191.6822,367.6381 L181.6822,377.6381 L157.6822,377.6381 " fill="none" style="stroke:#181818;stroke-width:1.0;"/><text fill="#000000" font-family="sans-serif" font-size="14" font-weight="bold" lengthAdjust="spacing" textLength="24" x="160.6822" y="372.685">API</text></g><!--MD5=[809c8a75e25a5f1203e71bceecf343a3]
cluster CDN--><g id="cluster_CDN"><path d="M22.9957,26.854 C29.9266,17.9975 35.8338,17.0624 42.3215,27.3025 C47.5904,18.0965 56.6842,18.0159 62.5757,26.5934 C67.9154,15.7056 74.3516,16.6911 81.812,24.3996 C87.0117,15.5218 95.0158,14.2028 101.7932,22.5719 C108.2934,12.1502 114.7967,12.3793 121.7678,22.1051 C126.1345,13.2288 133.1465,12.3626 139.9269,19.3405 C144.5971,7.9109 151.4881,6.5073 159.8722,15.7587 C168.4312,6 175.5213,8.3371 182.0898,18.032 C187.85,9.9262 196.2923,11.9793 200.4564,19.8652 C207.6549,11.9181 215.1239,12.8231 219.1651,23.1055 C226.6898,13.2761 234.7576,13.0838 240.5295,24.8403 C247.0797,17.2802 255.0253,15.7141 260.2931,26.2416 C265.5317,16.9154 271.4852,17.8948 277.997,24.8578 C285.3103,16.3785 294.0723,16.4047 298.4448,27.8725 C308.024,32.8111 308.6861,41.1946 300.5806,48.009 C309.9923,50.3903 311.3955,57.9946 304.3629,64.214 C313.2835,70.2366 315.2727,80.7939 303.338,85.8276 C310.9491,93.1315 309.6041,100.9386 299.198,104.1775 C293.178,112.4122 285.6665,111.2018 281.0132,102.6932 C276.0344,113.5297 268.2355,115.336 260.4733,105.4525 C253.5989,117.6187 245.8618,116.1997 238.3064,106.1315 C230.502,113.4769 224.0198,113.0547 218.6696,103.3115 C215.568,112.2316 207.9662,112.5678 201.8847,106.6919 C194.62,115.8266 187.0804,113.8129 181.4954,104.8043 C177.8709,115.8397 168.0163,114.664 162.1345,107.162 C155.0147,116.4373 146.1205,115.9853 140.269,105.7411 C132.6595,114.498 125.5382,112.8977 119.4342,103.9677 C116.0926,114.6258 107.1484,113.9309 101.2437,106.5527 C93.3283,114.9528 86.7179,114.6536 81.1811,104.0425 C74.8995,113.3933 67.6022,112.5757 62.6195,102.7831 C57.0886,113.8681 46.3921,115.2888 40.0099,103.6294 C34.0349,113.0419 28.8701,112.7044 22.824,103.6958 C11.8214,101.0911 10.4889,92.0641 18.0732,84.7889 C6.7671,81.3643 6,71.0637 14.4233,64.1501 C7.8262,57.9995 8.6455,50.968 16.678,46.7086 C9.4251,38.4655 10.8775,28.9332 22.9957,26.854 " fill="none" style="stroke:#181818;stroke-width:1.0;"/><text fill="#000000" font-family="sans-serif" font-size="14" font-weight="bold" lengthAdjust="spacing" textLength="32" x="142.6822" y="44.685">CDN</text></g><g id="cluster_##20"><path d="M630.3566,341.4629 C635.9461,327.8264 649.7017,325.3884 659.3213,336.8031 C666.4817,321.9834 678.6466,318.1807 689.3478,333.2455 C698.6646,318.0556 709.4301,320.0365 719.0689,332.9045 C730.5401,319.8867 742.5346,319.4325 751.7583,335.4361 C760.0023,323.7236 773.012,323.3521 778.438,338.2604 C791.4087,320.7906 807.6568,325.032 814.6822,344.1498 C816.5501,342.8458 818.0539,343.825 818.2883,345.8955 C831.3498,354.5148 829.7666,367.1377 814.9656,372.2434 C828.0263,379.4833 828.315,392.0949 816.1949,400.4329 C830.1737,408.8398 832.5467,421.9992 816.158,430.3687 C830.7375,435.0303 832.7913,447.0099 820.1049,455.8884 C831.219,464.4878 829.118,473.9962 817.264,479.8755 C831.8722,488.1421 835.6924,499.7801 820.2856,510.964 C833.8029,521.3703 832.074,530.4971 817.6048,538.143 C828.8034,543.1162 830.7464,555.0736 819.9835,562.2168 C832.9311,571.7795 828.9143,580.7997 817.368,587.8647 C832.3725,598.518 830.5431,608.1065 816.4107,617.8288 C828.2341,624.6256 831.5902,637.6524 817.6298,645.5818 C828.4798,653.7304 830.1979,666.2162 816.3383,673.2098 C830.5687,680.8478 828.8955,693.149 815.6182,700.0489 C825.9688,713.6209 825.9469,724.1221 807.6822,730.1498 C808.2341,730.2906 808.4244,730.6088 808.0897,731.1214 C802.0757,745.9853 788.9698,744.0806 781.5794,732.5013 C772.0669,747.9479 760.6711,747.1331 749.6378,734.2138 C742.6634,750.247 729.6998,750.4787 720.7156,736.1268 C711.5584,753.0638 697.9491,753.7776 688.4708,736.4288 C680.5049,748.8534 666.7939,746.8894 660.8107,734.2416 C645.088,749.6344 626.4929,743.6174 620.6822,723.1498 C622.6184,721.7218 624.7549,722.4346 624.7146,725.0978 C610.6157,719.3069 609.0331,711.3934 620.5633,701.1582 C607.3323,692.2307 605.1473,679.3365 620.217,670.0935 C609.5379,661.925 611.0124,652.0308 623.0567,646.6102 C608.2714,638.2231 608.6612,627.5358 621.1054,617.3337 C609.0103,611.7133 605.683,601.3102 617.8984,592.5448 C606.6817,581.0654 607.7557,570.97 621.2236,562.195 C609.0856,553.8564 607.0944,544.929 620.4523,535.8442 C606.4184,530.7501 606.1434,519.6659 616.9836,511.0868 C602.6873,500.8814 602.8625,491.854 617.7885,482.4705 C605.0887,472.4709 606.0881,461.6616 621.6481,455.7429 C606.6355,448.0347 605.2529,436.2873 618.8075,425.8633 C606.7617,415.9364 606.028,405.8245 621.4701,398.5802 C610.1264,389.1921 610.5015,381.3135 622.7823,373.1441 C608.4649,360.5924 608.0477,345.0797 627.6822,337.1498 C630.1741,337.2149 631.6678,339.0397 630.3566,341.4629 " fill="none" style="stroke:#181818;stroke-width:1.0;"/></g><!--MD5=[257d31108b780615a2c9554bd453d565]
cluster backup--><g id="cluster_backup"><rect fill="none" height="345" rx="2.5" ry="2.5" style="stroke:#181818;stroke-width:1.0;" width="146" x="644.6822" y="361.1498"/><text fill="#000000" font-family="sans-serif" font-size="14" font-style="italic" lengthAdjust="spacing" textLength="71" x="682.1822" y="376.685">«optional»</text><text fill="#000000" font-family="sans-serif" font-size="14" font-style="italic" lengthAdjust="spacing" textLength="61" x="687.1822" y="393.1733">«service»</text><text fill="#000000" font-family="sans-serif" font-size="14" font-weight="bold" lengthAdjust="spacing" textLength="102" x="666.6822" y="409.6616">Secure Backup</text></g><!--MD5=[4541fb81c80c07473fe4b07432ef0971]
entity app--><g id="elem_app"><rect fill="#FFC0CB" height="52.9766" rx="2.5" ry="2.5" style="stroke:#181818;stroke-width:0.5;" width="99" x="194.1822" y="199.1498"/><text fill="#000000" font-family="sans-serif" font-size="14" lengthAdjust="spacing" textLength="79" x="204.1822" y="222.685">Sustainable</text><text fill="#000000" font-family="sans-serif" font-size="14" lengthAdjust="spacing" textLength="61" x="204.1822" y="239.1733">Web App</text></g><!--MD5=[d4fd26f9614fa07fe76bdcffa998e3d3]
entity local--><g id="elem_local"><path d="M64.6822,622.1498 C64.6822,612.1498 107.6822,612.1498 107.6822,612.1498 C107.6822,612.1498 150.6822,612.1498 150.6822,622.1498 L150.6822,664.1264 C150.6822,674.1264 107.6822,674.1264 107.6822,674.1264 C107.6822,674.1264 64.6822,674.1264 64.6822,664.1264 L64.6822,622.1498 " fill="#F1F1F1" style="stroke:#181818;stroke-width:0.5;"/><path d="M64.6822,622.1498 C64.6822,632.1498 107.6822,632.1498 107.6822,632.1498 C107.6822,632.1498 150.6822,632.1498 150.6822,622.1498 " fill="none" style="stroke:#181818;stroke-width:0.5;"/><text fill="#000000" font-family="sans-serif" font-size="14" font-style="italic" lengthAdjust="spacing" textLength="66" x="74.6822" y="649.685">«storage»</text><text fill="#000000" font-family="sans-serif" font-size="14" lengthAdjust="spacing" textLength="32" x="91.6822" y="666.1733">local</text></g><!--MD5=[2428808ca108f759c26f353e279b151e]
entity Graph--><g id="elem_Graph"><rect fill="#F1F1F1" height="36.4883" rx="2.5" ry="2.5" style="stroke:#181818;stroke-width:0.5;" width="62" x="76.6822" y="437.1498"/><text fill="#000000" font-family="sans-serif" font-size="14" lengthAdjust="spacing" textLength="42" x="86.6822" y="460.685">Graph</text></g><!--MD5=[a096c1983bcf686c95ea726f28f7a0ed]
entity query--><g id="elem_query"><ellipse cx="219.6822" cy="455.1498" fill="#F1F1F1" rx="8" ry="8" style="stroke:#181818;stroke-width:0.5;"/><text fill="#000000" font-family="sans-serif" font-size="14" lengthAdjust="spacing" textLength="56" x="181.1822" y="485.685">Reactive</text><text fill="#000000" font-family="sans-serif" font-size="14" lengthAdjust="spacing" textLength="77" x="181.1822" y="502.1733">Observable</text><text fill="#000000" font-family="sans-serif" font-size="14" lengthAdjust="spacing" textLength="41" x="181.1822" y="518.6616">Query</text></g><!--MD5=[703ea5a149c5871c74522bf38bdfe548]
entity data--><g id="elem_data"><ellipse cx="332.6822" cy="455.1498" fill="#F1F1F1" rx="8" ry="8" style="stroke:#181818;stroke-width:0.5;"/><text fill="#000000" font-family="sans-serif" font-size="14" lengthAdjust="spacing" textLength="49" x="308.1822" y="485.685">Writing</text><text fill="#000000" font-family="sans-serif" font-size="14" lengthAdjust="spacing" textLength="31" x="308.1822" y="502.1733">Data</text></g><!--MD5=[02ab48b3985ee383ac7fbb2fd4890895]
entity origin--><g id="elem_origin"><rect fill="#F1F1F1" height="36.4883" rx="2.5" ry="2.5" style="stroke:#181818;stroke-width:0.5;" width="91" x="198.1822" y="55.6498"/><text fill="#000000" font-family="sans-serif" font-size="14" lengthAdjust="spacing" textLength="71" x="208.1822" y="79.185">app origin</text></g><g id="elem_GMN15"><path d="M28.1822,53.1498 L28.1822,93.7709 A0,0 0 0 0 28.1822,93.7709 L163.1822,93.7709 A0,0 0 0 0 163.1822,93.7709 L163.1822,77.6498 L198.1622,73.6498 L163.1822,69.6498 L163.1822,63.1498 L153.1822,53.1498 L28.1822,53.1498 A0,0 0 0 0 28.1822,53.1498 " fill="#FEFFDD" style="stroke:#181818;stroke-width:0.5;"/><path d="M153.1822,53.1498 L153.1822,63.1498 L163.1822,63.1498 L153.1822,53.1498 " fill="#FEFFDD" style="stroke:#181818;stroke-width:0.5;"/><text fill="#000000" font-family="sans-serif" font-size="13" lengthAdjust="spacing" textLength="103" x="34.1822" y="70.7182">Serves the static</text><text fill="#000000" font-family="sans-serif" font-size="13" lengthAdjust="spacing" textLength="114" x="34.1822" y="86.0288">application assets</text></g><!--MD5=[7c5fc3b8910c5a8f6c35436fef7117de]
entity gwGraph--><g id="elem_gwGraph"><rect fill="#F1F1F1" height="36.4883" rx="2.5" ry="2.5" style="stroke:#181818;stroke-width:0.5;" width="62" x="675.6822" y="437.1498"/><text fill="#000000" font-family="sans-serif" font-size="14" lengthAdjust="spacing" textLength="42" x="685.6822" y="460.685">Graph</text></g><!--MD5=[d8ac9dbbbd15cdc525358aa3658d2d2e]
entity gwDb--><g id="elem_gwDb"><path d="M669.1822,614.1498 C669.1822,604.1498 713.6822,604.1498 713.6822,604.1498 C713.6822,604.1498 758.1822,604.1498 758.1822,614.1498 L758.1822,672.6147 C758.1822,682.6147 713.6822,682.6147 713.6822,682.6147 C713.6822,682.6147 669.1822,682.6147 669.1822,672.6147 L669.1822,614.1498 " fill="#F1F1F1" style="stroke:#181818;stroke-width:0.5;"/><path d="M669.1822,614.1498 C669.1822,624.1498 713.6822,624.1498 713.6822,624.1498 C713.6822,624.1498 758.1822,624.1498 758.1822,614.1498 " fill="none" style="stroke:#181818;stroke-width:0.5;"/><text fill="#000000" font-family="sans-serif" font-size="14" font-style="italic" lengthAdjust="spacing" textLength="66" x="680.6822" y="641.685">«storage»</text><text fill="#000000" font-family="sans-serif" font-size="14" lengthAdjust="spacing" textLength="69" x="679.1822" y="658.1733">volume or</text><text fill="#000000" font-family="sans-serif" font-size="14" lengthAdjust="spacing" textLength="62" x="679.1822" y="674.6616">database</text></g><!--MD5=[9ae5ad255f6debb40ed35199de901202]
entity messaging--><g id="elem_messaging"><path d="M456.0091,621.4614 C459.2416,614.9578 464.4273,614.8731 468.5389,620.5577 C473.2561,615.2622 477.3027,615.418 481.5305,621.135 C485.8493,615.078 491.1023,614.652 495.6299,620.8958 C499.6942,615.614 503.8768,614.6145 508.2173,620.5869 C511.7437,613.6373 517.7641,613.7657 522.1612,619.6401 C526.0142,613.1423 530.2245,613.387 534.9301,618.72 C539.9002,613.4406 544.6796,612.4106 548.8507,619.6112 C553.7343,613.7867 557.7303,614.3641 561.7015,620.5847 C565.2095,616.0065 570.5244,616.0828 573.3735,621.3647 C576.8622,613.4828 584.0231,613.9851 587.9221,620.963 C592.8764,624.8102 594.7152,628.4953 588.3904,632.7893 C595.0358,634.5027 596.9648,639.6447 591.3984,644.4958 C595.3621,648.7668 594.8014,652.1983 589.9872,655.3255 C595.746,660.4993 595.0141,664.4885 587.9314,667.4925 C585.3894,673.3118 581.4051,674.4618 576.564,670.0459 C572.6575,675.2263 568.2209,674.9699 564.638,669.6773 C561.6062,675.4873 558.1611,674.9166 553.9249,671.0046 C551.4952,675.77 548.3607,677.1072 544.1433,672.9684 C541.1936,679.8448 537.4857,681.3568 531.8463,675.5829 C529.3634,680.5926 524.5464,681.1175 520.9819,676.8496 C517.7405,680.7416 513.9933,680.1794 511.5397,675.9354 C506.887,680.808 501.7097,679.2866 500.729,672.5238 C497.4037,676.7577 493.2608,677.7316 490.0561,672.3894 C484.9098,677.4991 480.3803,677.1674 477.7304,669.9028 C474.3679,674.458 469.9761,673.3322 467.5297,668.867 C463.7026,673.9609 458.9131,672.7435 457.2098,666.8688 C452.3259,664.7127 450.2104,661.5208 454.4977,656.8757 C447.7514,654.6765 445.4549,649.5583 451.0093,644.021 C446.0782,639.2549 446.4997,634.6766 453.517,632.5144 C448.8376,628.3658 449.9262,623.1834 456.0091,621.4614 " fill="#F1F1F1" style="stroke:#181818;stroke-width:0.5;"/><text fill="#000000" font-family="sans-serif" font-size="14" font-style="italic" lengthAdjust="spacing" textLength="61" x="490.1822" y="640.185">«service»</text><text fill="#000000" font-family="sans-serif" font-size="14" lengthAdjust="spacing" textLength="117" x="462.1822" y="656.6733">Message Delivery</text></g><!--MD5=[7354a1c4232ea769ff615c8d0fd225cf]
entity dapi--><g id="elem_dapi"><ellipse cx="886.6822" cy="643.1498" fill="#F1F1F1" rx="8" ry="8" style="stroke:#181818;stroke-width:0.5;"/><text fill="#000000" font-family="sans-serif" font-size="14" lengthAdjust="spacing" textLength="80" x="846.6822" y="673.685">Linked Data</text><text fill="#000000" font-family="sans-serif" font-size="14" font-style="italic" lengthAdjust="spacing" textLength="48" x="862.6822" y="623.1967">«REST»</text></g><!--MD5=[8a4ab38f2a7362826a68e1466d9b79c7]
entity others--><g id="elem_others"><rect fill="#F1F1F1" height="32.4883" rx="2.5" ry="2.5" style="stroke:#181818;stroke-width:0.5;" width="148" x="448.6822" y="441.1498"/><rect fill="#F1F1F1" height="32.4883" rx="2.5" ry="2.5" style="stroke:#181818;stroke-width:0.5;" width="148" x="444.6822" y="437.1498"/><text fill="#000000" font-family="sans-serif" font-size="14" lengthAdjust="spacing" textLength="132" x="452.6822" y="458.685">other collaborators</text></g><!--MD5=[b943d2e406cb5051d6fecfa1aabeb627]
link Graph to local--><g id="link_Graph_local"><path d="M107.6822,478.3898 C107.6822,510.1198 107.6822,568.6898 107.6822,606.5098 " fill="none" id="Graph-local" style="stroke:#181818;stroke-width:1.0;"/><polygon fill="#181818" points="107.6822,611.9298,111.6822,602.9298,107.6822,606.9298,103.6822,602.9298,107.6822,611.9298" style="stroke:#181818;stroke-width:1.0;"/><polygon fill="#181818" points="107.6822,473.3198,103.6822,482.3198,107.6822,478.3198,111.6822,482.3198,107.6822,473.3198" style="stroke:#181818;stroke-width:1.0;"/></g><!--MD5=[d200737cc0ecbdaac7acf85af707211d]
link app to query--><g id="link_app_query"><path d="M240.9722,252.2998 C235.8822,300.6198 225.0222,403.5598 221.1122,440.5598 " fill="none" id="app-to-query" style="stroke:#181818;stroke-width:1.0;"/><polygon fill="#181818" points="220.5522,445.9098,225.4813,437.3832,221.0808,440.9379,217.5262,436.5374,220.5522,445.9098" style="stroke:#181818;stroke-width:1.0;"/></g><!--MD5=[4b92f26e7f06ea4ee51ed9ec96e4d4f8]
link app to data--><g id="link_app_data"><path d="M261.1422,252.2198 C268.4822,263.7498 276.6922,277.7698 282.6822,291.1498 C306.5922,344.5998 323.4122,412.7698 329.8122,440.9998 " fill="none" id="app-to-data" style="stroke:#181818;stroke-width:1.0;"/><polygon fill="#181818" points="330.9522,446.0998,332.8777,436.441,329.854,441.222,325.0731,438.1982,330.9522,446.0998" style="stroke:#181818;stroke-width:1.0;"/></g><!--MD5=[fdc95f98a61cb938989a58fa8240b344]
link gwGraph to gwDb--><g id="link_gwGraph_gwDb"><path d="M707.5222,478.4298 C708.6322,507.9698 710.6222,560.7498 712.0322,598.3998 " fill="none" id="gwGraph-gwDb" style="stroke:#181818;stroke-width:1.0;"/><polygon fill="#181818" points="712.2422,603.8398,715.8793,594.6872,712.0424,598.8438,707.8857,595.0069,712.2422,603.8398" style="stroke:#181818;stroke-width:1.0;"/><polygon fill="#181818" points="707.3322,473.3198,703.67,482.4625,707.5183,478.3164,711.6645,482.1647,707.3322,473.3198" style="stroke:#181818;stroke-width:1.0;"/></g><!--MD5=[28fbda790cd8cf689a141124c76591ab]
link backup to dapi--><g id="link_backup_dapi"><path d="M790.9508,470.9301 C791.0505,471.1084 791.1509,471.2881 791.2521,471.4692 C792.8715,474.3659 794.6842,477.6084 796.6582,481.1394 C804.5541,495.2633 815.031,514.003 826.0397,533.6936 C848.0572,573.0748 872.2022,616.2598 882.0822,633.9298 " fill="none" id="backup-dapi" style="stroke:#181818;stroke-width:1.0;"/></g><!--MD5=[ebc9bf35bf4ca6342df39c51ba7457c9]
link Graph to messaging--><g id="link_Graph_messaging"><path d="M110.0422,473.2398 C114.4922,498.1598 126.6222,543.8098 157.6822,565.1498 C169.2422,573.0898 269.7822,571.2298 283.6822,573.1498 C348.9622,582.1498 365.7522,584.5998 428.6822,604.1498 C434.2222,605.8698 439.9022,607.7998 445.5722,609.8398 " fill="none" id="Graph-to-messaging" style="stroke:#181818;stroke-width:1.0;"/><polygon fill="#181818" points="450.3322,611.5798,443.2477,604.7381,445.6349,609.8665,440.5064,612.2537,450.3322,611.5798" style="stroke:#181818;stroke-width:1.0;"/></g><!--MD5=[a98a55c3c3019bd80a0efaf81f5786ff]
link gwGraph to messaging--><g id="link_gwGraph_messaging"><path d="M693.6622,473.1898 C676.4022,495.3298 644.5122,534.7698 613.6822,565.1498 C598.5422,580.0698 580.8022,595.2498 564.9022,608.1498 " fill="none" id="gwGraph-to-messaging" style="stroke:#181818;stroke-width:1.0;"/><polygon fill="#181818" points="560.9022,611.3698,570.4198,608.8371,564.7954,608.2325,565.4001,602.608,560.9022,611.3698" style="stroke:#181818;stroke-width:1.0;"/></g><!--MD5=[4eaff00038faae04547f8d0e24e4ce67]
link others to messaging--><g id="link_others_messaging"><path d="M520.6822,473.3198 C520.6822,503.4398 520.6822,566.4098 520.6822,606.3598 " fill="none" id="others-to-messaging" style="stroke:#181818;stroke-width:1.0;"/><polygon fill="#181818" points="520.6822,611.5898,524.6822,602.5898,520.6822,606.5898,516.6822,602.5898,520.6822,611.5898" style="stroke:#181818;stroke-width:1.0;"/></g><!--MD5=[c080b03a590b10f00d095053c07a15c8]
link origin to app--><g id="link_origin_app"><path d="M243.6822,91.8598 C243.6822,116.6598 243.6822,162.8698 243.6822,193.6998 " fill="none" id="origin-to-app" style="stroke:#181818;stroke-width:1.0;stroke-dasharray:7.0,7.0;"/><polygon fill="#181818" points="243.6822,198.8898,247.6822,189.8898,243.6822,193.8898,239.6822,189.8898,243.6822,198.8898" style="stroke:#181818;stroke-width:1.0;"/><text fill="#000000" font-family="sans-serif" font-size="13" lengthAdjust="spacing" textLength="33" x="244.6822" y="139.7182">HTTP</text></g><!--MD5=[d2d6c8b0ef069e42907c12c7a08c0b2c]
@startuml
'https://plantuml.com/component-diagram
skinparam componentStyle rectangle

node "Web Browser" {
  component "Sustainable\nWeb App" as app #pink
  component "Collaborative\nWeb Library" as cwl {
    [Graph]
    frame API {
      interface "Reactive\nObservable\nQuery" as query
      interface "Writing\nData" as data
    }
  }

  database local <<storage>>

  Graph <- -> local

  app - -> query
  app - -> data
}

cloud CDN {
  [app origin] as origin
  note left
    Serves the static
    application assets
  end note
}

cloud "Message Delivery" as messaging <<service>>

interface "Linked Data" as dapi <<REST>>

cloud {
  component "Secure Backup" as backup <<optional>> <<service>> {
    component "Graph" as gwGraph
    database "volume or\ndatabase" <<storage>> as gwDb
    gwGraph <- -> gwDb
  }
  backup - - dapi
}

collections "other collaborators" as others

Graph - -> messaging
gwGraph - -> messaging
others - -> messaging

origin ..> app: HTTP

@enduml

@startuml
skinparam componentStyle rectangle

node "Web Browser" {
  component "Sustainable\nWeb App" as app #pink
  component "Collaborative\nWeb Library" as cwl {
    [Graph]
    frame API {
      interface "Reactive\nObservable\nQuery" as query
      interface "Writing\nData" as data
    }
  }

  database local <<storage>>

  Graph <- -> local

  app - -> query
  app - -> data
}

cloud CDN {
  [app origin] as origin
  note left
    Serves the static
    application assets
  end note
}

cloud "Message Delivery" as messaging <<service>>

interface "Linked Data" as dapi <<REST>>

cloud {
  component "Secure Backup" as backup <<optional>> <<service>> {
    component "Graph" as gwGraph
    database "volume or\ndatabase" <<storage>> as gwDb
    gwGraph <- -> gwDb
  }
  backup - - dapi
}

collections "other collaborators" as others

Graph - -> messaging
gwGraph - -> messaging
others - -> messaging

origin ..> app: HTTP

@enduml

PlantUML version 1.2022.8(Sun Sep 25 10:00:33 BST 2022)
(GPL source distribution)
Java Runtime: OpenJDK Runtime Environment
JVM: OpenJDK 64-Bit Server VM
Default Encoding: UTF-8
Language: en
Country: GB
--></g></svg>